<svg version="1.1" viewBox="0.0 0.0 842.7506561679791 516.1601049868766" fill="none" stroke="none" stroke-linecap="square" stroke-miterlimit="10" xmlns:xlink="http://www.w3.org/1999/xlink" xmlns="http://www.w3.org/2000/svg"><clipPath id="p.0"><path d="m0 0l842.7507 0l0 516.1601l-842.7507 0l0 -516.1601z" clip-rule="nonzero"/></clipPath><g clip-path="url(#p.0)"><path fill="#000000" fill-opacity="0.0" d="m0 0l842.7507 0l0 516.1601l-842.7507 0z" fill-rule="evenodd"/><path fill="#428eff" d="m67.67895 215.03914l0 0c0 -8.497284 6.8884125 -15.385681 15.385696 -15.385681l264.15775 0c4.080536 0 7.9939575 1.6209869 10.8793335 4.506363c2.885376 2.885376 4.506378 6.7987823 4.506378 10.879318l0 86.079025c0 8.497284 -6.8884277 15.385681 -15.385712 15.385681l-264.15775 0c-8.497284 0 -15.385696 -6.888397 -15.385696 -15.385681z" fill-rule="evenodd"/><path stroke="#202124" stroke-width="3.0" stroke-miterlimit="400.0" stroke-linecap="butt" d="m67.67895 215.03914l0 0c0 -8.497284 6.8884125 -15.385681 15.385696 -15.385681l264.15775 0c4.080536 0 7.9939575 1.6209869 10.8793335 4.506363c2.885376 2.885376 4.506378 6.7987823 4.506378 10.879318l0 86.079025c0 8.497284 -6.8884277 15.385681 -15.385712 15.385681l-264.15775 0c-8.497284 0 -15.385696 -6.888397 -15.385696 -15.385681z" fill-rule="evenodd"/><path fill="#202124" d="m101.95089 267.72375q-2.15625 0 -4.0625 -0.78125q-1.90625 -0.796875 -3.359375 -2.203125q-1.4375 -1.421875 -2.265625 -3.328125q-0.8125 -1.921875 -0.8125 -4.171875q0 -2.2343597 0.8125 -4.1406097q0.828125 -1.921875 2.265625 -3.328125q1.453125 -1.421875 3.359375 -2.203125q1.90625 -0.796875 4.0625 -0.796875q2.296875 0 4.234375 0.8125q1.953125 0.8125 3.265625 2.265625l-2.125 2.109375q-0.65625 -0.734375 -1.484375 -1.234375q-0.8125 -0.5 -1.796875 -0.765625q-0.984375 -0.265625 -2.09375 -0.265625q-1.484375 0 -2.828125 0.53125q-1.34375 0.53125 -2.375 1.53125q-1.015625 0.984375 -1.609375 2.375q-0.578125 1.375 -0.578125 3.1093597q0 1.75 0.59375 3.140625q0.609375 1.375 1.625 2.375q1.015625 0.984375 2.359375 1.515625q1.34375 0.53125 2.828125 0.53125q1.375 0 2.5625 -0.390625q1.203125 -0.390625 2.09375 -1.109375q0.890625 -0.734375 1.453125 -1.78125q0.5625 -1.046875 0.703125 -2.375l-6.859375 0l0 -2.71875l9.734375 0q0.0625 0.34375 0.109375 0.78125q0.0625 0.4375 0.0625 0.828125l0 0l0 0l0 0.015625q0 2.15625 -0.75 3.953125q-0.734375 1.796875 -2.046875 3.078125q-1.3125 1.265625 -3.125 1.953125q-1.796875 0.6875 -3.953125 0.6875zm12.534836 -0.453125l0 -14.281235l3.03125 0l0 14.281235l-3.03125 0zm1.515625 -16.374985q-0.84375 0 -1.453125 -0.59375q-0.59375 -0.609375 -0.59375 -1.453125q0 -0.875 0.59375 -1.4375q0.609375 -0.578125 1.453125 -0.578125q0.875 0 1.453125 0.578125q0.59375 0.5625 0.59375 1.4375q0 0.84375 -0.59375 1.453125q-0.578125 0.59375 -1.453125 0.59375zm9.6094055 16.374985l-5.90625 -14.281235l3.359375 0l4.0 10.39061l0.140625 0l4.0781174 -10.39061l3.3125 0l-5.96875 14.281235l-3.0156174 0zm17.03994 0.453125q-2.09375 0 -3.75 -0.984375q-1.640625 -0.984375 -2.578125 -2.6875q-0.9375 -1.703125 -0.9375 -3.890625q0 -2.046875 0.890625 -3.78125q0.890625 -1.7343597 2.5 -2.7812347q1.609375 -1.0625 3.71875 -1.0625q2.203125 0 3.75 0.953125q1.5625 0.953125 2.375 2.6093597q0.8125 1.65625 0.8125 3.71875q0 0.3125 -0.015625 0.5625q-0.015625 0.25 -0.03125 0.390625l-12.296875 0l0 -2.265625l9.34375 0q-0.015625 -0.53125 -0.28125 -1.125q-0.25 -0.609375 -0.734375 -1.109375q-0.46875 -0.51560974 -1.203125 -0.82810974q-0.71875 -0.328125 -1.703125 -0.328125q-1.21875 0 -2.171875 0.640625q-0.953125 0.62498474 -1.484375 1.7499847q-0.53125 1.109375 -0.53125 2.59375q0 1.625 0.609375 2.71875q0.625 1.09375 1.625 1.65625q1.015625 0.5625 2.1875 0.5625q1.421875 0 2.390625 -0.65625q0.96875 -0.671875 1.53125 -1.640625l2.484375 1.203125q-0.921875 1.671875 -2.515625 2.734375q-1.59375 1.046875 -3.984375 1.046875zm14.208817 0q-1.546875 0 -2.734375 -0.609375q-1.1875 -0.625 -1.875 -1.703125q-0.6875 -1.078125 -0.6875 -2.484375q0 -1.53125 0.796875 -2.59375q0.796875 -1.078125 2.140625 -1.625q1.34375 -0.5625 2.96875 -0.5625q0.890625 0 1.65625 0.125q0.78125 0.125 1.34375 0.296875q0.578125 0.15625 0.921875 0.359375l0 -0.75q0 -1.40625 -1.015625 -2.2499847q-1.0 -0.84375 -2.59375 -0.84375q-1.09375 0 -2.078125 0.5q-0.984375 0.48435974 -1.5625 1.3281097l-2.078125 -1.5937347q0.625 -0.875 1.5 -1.484375q0.890625 -0.625 1.984375 -0.953125q1.109375 -0.34375 2.3125 -0.34375q3.109375 0 4.78125 1.53125q1.6875 1.53125 1.6875 4.2656097l0 8.9375l-2.9375 0l0 -1.765625l-0.171875 0q-0.359375 0.5625 -1.0 1.0625q-0.625 0.5 -1.484375 0.828125q-0.84375 0.328125 -1.875 0.328125zm0.53125 -2.46875q1.171875 0 2.078125 -0.5625q0.90625 -0.5625 1.40625 -1.46875q0.515625 -0.90625 0.515625 -1.96875q-0.625 -0.375 -1.5 -0.609375q-0.875 -0.234375 -1.859375 -0.234375q-1.84375 0 -2.640625 0.734375q-0.78125 0.71875 -0.78125 1.8125q0 1.015625 0.75 1.65625q0.765625 0.640625 2.03125 0.640625zm12.992447 2.015625l-4.5625 -14.281235l3.265625 0l2.9375 10.281235l0.125 0l3.21875 -10.281235l3.109375 0l3.21875 10.281235l0.109375 0l2.9375 -10.281235l3.21875 0l-4.59375 14.281235l-3.15625 0l-3.3125 -10.328125l-0.109375 0l-3.28125 10.328125l-3.125 0zm23.744476 0.453125q-1.546875 0 -2.734375 -0.609375q-1.1875 -0.625 -1.875 -1.703125q-0.6875 -1.078125 -0.6875 -2.484375q0 -1.53125 0.796875 -2.59375q0.796875 -1.078125 2.140625 -1.625q1.34375 -0.5625 2.96875 -0.5625q0.890625 0 1.65625 0.125q0.78125 0.125 1.34375 0.296875q0.578125 0.15625 0.921875 0.359375l0 -0.75q0 -1.40625 -1.015625 -2.2499847q-1.0 -0.84375 -2.59375 -0.84375q-1.09375 0 -2.078125 0.5q-0.984375 0.48435974 -1.5625 1.3281097l-2.078125 -1.5937347q0.625 -0.875 1.5 -1.484375q0.890625 -0.625 1.984375 -0.953125q1.109375 -0.34375 2.3125 -0.34375q3.109375 0 4.78125 1.53125q1.6875 1.53125 1.6875 4.2656097l0 8.9375l-2.9375 0l0 -1.765625l-0.171875 0q-0.359375 0.5625 -1.0 1.0625q-0.625 0.5 -1.484375 0.828125q-0.84375 0.328125 -1.875 0.328125zm0.53125 -2.46875q1.171875 0 2.078125 -0.5625q0.90625 -0.5625 1.40625 -1.46875q0.515625 -0.90625 0.515625 -1.96875q-0.625 -0.375 -1.5 -0.609375q-0.875 -0.234375 -1.859375 -0.234375q-1.84375 0 -2.640625 0.734375q-0.78125 0.71875 -0.78125 1.8125q0 1.015625 0.75 1.65625q0.765625 0.640625 2.03125 0.640625zm14.867447 7.359375q-0.09375 0.203125 -0.1875 0.40625q-0.09375 0.21875 -0.125 0.296875l-3.21875 0q0.140625 -0.3125 0.40625 -0.875q0.265625 -0.546875 0.515625 -1.109375q0.171875 -0.359375 0.34375 -0.78125q0.1875 -0.421875 0.390625 -0.875q0.21875 -0.453125 0.421875 -0.859375l2.03125 -4.515625l0.65625 -1.5625l3.9375 -9.749985l3.328125 0l-7.390625 17.031235q-0.1875 0.46875 -0.4375 1.0q-0.234375 0.53125 -0.421875 0.96875q-0.171875 0.4375 -0.25 0.625zm-0.234375 -5.765625l-6.125 -13.85936l3.359375 0l4.09375 9.749985l0.328125 0l-1.65625 4.109375zm15.682571 0.875q-1.703125 0 -2.96875 -0.515625q-1.25 -0.53125 -2.0625 -1.40625q-0.8125 -0.890625 -1.203125 -1.921875l2.703125 -1.171875q0.515625 1.140625 1.453125 1.75q0.9375 0.59375 2.171875 0.59375q1.109375 0 1.921875 -0.40625q0.8125 -0.40625 0.8125 -1.328125q0 -0.578125 -0.375 -0.953125q-0.375 -0.390625 -1.015625 -0.640625q-0.625 -0.25 -1.4375 -0.4375l-1.703125 -0.40625q-1.015625 -0.25 -1.921875 -0.796875q-0.90625 -0.546875 -1.46875 -1.375q-0.5625 -0.84375 -0.5625 -2.0q0 -1.2812347 0.734375 -2.2187347q0.75 -0.9375 2.0 -1.4375q1.265625 -0.515625 2.734375 -0.515625q1.34375 0 2.4375 0.359375q1.109375 0.34375 1.9375 1.03125q0.828125 0.6875 1.296875 1.703125l-2.59375 1.1718597q-0.484375 -0.95310974 -1.296875 -1.3281097q-0.8125 -0.390625 -1.765625 -0.390625q-1.0625 0 -1.78125 0.4375q-0.703125 0.4375 -0.703125 1.1406097q0 0.71875 0.625 1.140625q0.640625 0.421875 1.5625 0.671875l2.0625 0.515625q2.140625 0.53125 3.203125 1.609375q1.0625 1.078125 1.0625 2.609375q0 1.375 -0.796875 2.40625q-0.78125 1.015625 -2.109375 1.5625q-1.328125 0.546875 -2.953125 0.546875z" fill-rule="nonzero"/><path fill="#ffffff" d="m281.35147 257.2756l0 0c0 -17.194763 13.939087 -31.133865 31.13385 -31.133865l0 0c8.257233 0 16.176239 3.2801514 22.014984 9.1188965c5.8387146 5.83873 9.118866 13.757736 9.118866 22.014969l0 0c0 17.194733 -13.939087 31.13385 -31.13385 31.13385l0 0c-17.194763 0 -31.13385 -13.939117 -31.13385 -31.13385z" fill-rule="evenodd"/><path fill="#428eff" d="m312.51035 270.6559l13.654694 -10.92984l3.0376892 2.4404602l-16.805267 13.14801l-16.842926 -13.14801l3.0753174 -2.3276367l13.880493 10.817017zm0.075286865 -4.7697754l-13.72995 -10.818695l-3.0753174 -2.4404755l16.805267 -13.14801l16.842926 13.14801l-3.0753174 2.4404755l-13.767609 10.818695z" fill-rule="evenodd"/><path fill="#ffffff" d="m357.5248 672.03955l13.654663 -10.929871l3.0376892 2.4404907l-16.805267 13.14801l-16.842926 -13.14801l3.0753174 -2.3276978l13.880524 10.817078zm0.07525635 -4.7697754l-13.72995 -10.818726l-3.0753174 -2.4404907l16.805267 -13.14801l16.842926 13.14801l-3.0753174 2.4404907l-13.767609 10.818726z" fill-rule="evenodd"/><path fill="#eeeeee" d="m498.2848 71.199005l0 0c0 -7.8904533 6.396454 -14.28693 14.286926 -14.28693l248.2135 0c3.7891846 0 7.4230957 1.5052261 10.102417 4.1845436c2.6793213 2.6793213 4.1845703 6.3132553 4.1845703 10.102386l0 160.18204c0 7.890457 -6.3964844 14.286942 -14.286987 14.286942l-248.2135 0c-7.8904724 0 -14.286926 -6.3964844 -14.286926 -14.286942z" fill-rule="evenodd"/><path fill="#ffffff" d="m524.30054 88.70831l0 0c0 -6.2851257 5.095093 -11.380226 11.380249 -11.380226l201.99542 0c3.0182495 0 5.912842 1.1989822 8.047058 3.333191c2.1342163 2.134201 3.333191 5.0288086 3.333191 8.047035l0 60.89308c0 6.2851257 -5.095093 11.380234 -11.380249 11.380234l-201.99542 0c-6.2851562 0 -11.380249 -5.095108 -11.380249 -11.380234z" fill-rule="evenodd"/><path stroke="#202124" stroke-width="2.0" stroke-miterlimit="400.0" stroke-linecap="butt" d="m524.30054 88.70831l0 0c0 -6.2851257 5.095093 -11.380226 11.380249 -11.380226l201.99542 0c3.0182495 0 5.912842 1.1989822 8.047058 3.333191c2.1342163 2.134201 3.333191 5.0288086 3.333191 8.047035l0 60.89308c0 6.2851257 -5.095093 11.380234 -11.380249 11.380234l-201.99542 0c-6.2851562 0 -11.380249 -5.095108 -11.380249 -11.380234z" fill-rule="evenodd"/><path fill="#202124" d="m547.89935 128.34685l0 -20.046867l3.640625 0l9.078125 14.734375l0.15625 0l-0.15625 -3.875l0 -10.859375l3.046875 0l0 20.046867l-3.1875 0l-9.53125 -15.484367l-0.15625 0l0.15625 3.859375l0 11.624992l-3.046875 0zm26.23883 0.453125q-2.21875 0 -3.90625 -0.9999924q-1.671875 -1.015625 -2.625 -2.734375q-0.9375 -1.734375 -0.9375 -3.859375q0 -2.125 0.9375 -3.84375q0.953125 -1.734375 2.625 -2.734375q1.6875 -1.015625 3.90625 -1.015625q2.1875 0 3.859375 1.03125q1.6875 1.015625 2.640625 2.734375q0.953125 1.703125 0.953125 3.828125q0 2.125 -0.953125 3.859375q-0.953125 1.71875 -2.640625 2.734375q-1.671875 0.9999924 -3.859375 0.9999924zm0 -2.7812424q1.171875 0 2.171875 -0.5625q1.015625 -0.578125 1.640625 -1.65625q0.640625 -1.078125 0.640625 -2.59375q0 -1.515625 -0.640625 -2.59375q-0.625 -1.078125 -1.640625 -1.640625q-1.0 -0.578125 -2.171875 -0.578125q-1.171875 0 -2.203125 0.578125q-1.015625 0.5625 -1.65625 1.640625q-0.625 1.078125 -0.625 2.59375q0 1.515625 0.625 2.59375q0.640625 1.078125 1.671875 1.65625q1.046875 0.5625 2.1875 0.5625zm16.940063 2.7812424q-2.21875 0 -3.90625 -0.9999924q-1.671875 -1.015625 -2.625 -2.734375q-0.9375 -1.734375 -0.9375 -3.859375q0 -2.125 0.9375 -3.84375q0.953125 -1.734375 2.625 -2.734375q1.6875 -1.015625 3.90625 -1.015625q2.1875 0 3.859375 1.03125q1.6875 1.015625 2.640625 2.734375q0.953125 1.703125 0.953125 3.828125q0 2.125 -0.953125 3.859375q-0.953125 1.71875 -2.640625 2.734375q-1.671875 0.9999924 -3.859375 0.9999924zm0 -2.7812424q1.171875 0 2.171875 -0.5625q1.015625 -0.578125 1.640625 -1.65625q0.640625 -1.078125 0.640625 -2.59375q0 -1.515625 -0.640625 -2.59375q-0.625 -1.078125 -1.640625 -1.640625q-1.0 -0.578125 -2.171875 -0.578125q-1.171875 0 -2.203125 0.578125q-1.015625 0.5625 -1.65625 1.640625q-0.625 1.078125 -0.625 2.59375q0 1.515625 0.625 2.59375q0.640625 1.078125 1.671875 1.65625q1.046875 0.5625 2.1875 0.5625zm9.941284 2.3281174l0 -14.281242l2.859375 0l0 1.96875l0.15625 0q0.625 -1.046875 1.84375 -1.734375q1.21875 -0.6875 2.671875 -0.6875q2.625 0 3.9375 1.5625q1.328125 1.546875 1.328125 4.15625l0 9.015617l-3.0 0l0 -8.624992q0 -1.734375 -0.875 -2.53125q-0.859375 -0.796875 -2.265625 -0.796875q-1.078125 0 -1.890625 0.609375q-0.8125 0.59375 -1.28125 1.578125q-0.46875 0.96875 -0.46875 2.09375l0 7.6718674l-3.015625 0zm22.755737 0.453125q-2.09375 0 -3.75 -0.9843674q-1.640625 -0.984375 -2.578125 -2.6875q-0.9375 -1.703125 -0.9375 -3.890625q0 -2.046875 0.890625 -3.78125q0.890625 -1.734375 2.5 -2.78125q1.609375 -1.0625 3.71875 -1.0625q2.203125 0 3.75 0.953125q1.5625 0.953125 2.375 2.609375q0.8125 1.65625 0.8125 3.71875q0 0.3125 -0.015625 0.5625q-0.015625 0.25 -0.03125 0.390625l-12.296875 0l0 -2.265625l9.34375 0q-0.015625 -0.53125 -0.28125 -1.125q-0.25 -0.609375 -0.734375 -1.109375q-0.46875 -0.515625 -1.203125 -0.828125q-0.71875 -0.328125 -1.703125 -0.328125q-1.21875 0 -2.171875 0.640625q-0.953125 0.625 -1.484375 1.75q-0.53125 1.109375 -0.53125 2.59375q0 1.625 0.609375 2.71875q0.625 1.09375 1.625 1.65625q1.015625 0.5625 2.1875 0.5625q1.421875 0 2.390625 -0.65625q0.96875 -0.671875 1.53125 -1.640625l2.484375 1.203125q-0.921875 1.671875 -2.515625 2.734375q-1.59375 1.0468674 -3.984375 1.0468674z" fill-rule="nonzero"/><path fill="#31a853" d="m524.3014 203.35205l0 0c0 -11.784973 9.55365 -21.338593 21.338623 -21.338593l182.07874 0c5.6593018 0 11.086853 2.248169 15.088623 6.2499237c4.00177 4.00177 6.249939 9.429321 6.249939 15.088669l0 0l0 0c0 11.784973 -9.553589 21.338577 -21.338562 21.338577l-182.07874 0c-11.784973 0 -21.338623 -9.553604 -21.338623 -21.338577z" fill-rule="evenodd"/><path stroke="#202124" stroke-width="2.0" stroke-linejoin="round" stroke-linecap="butt" d="m524.3014 203.35205l0 0c0 -11.784973 9.55365 -21.338593 21.338623 -21.338593l182.07874 0c5.6593018 0 11.086853 2.248169 15.088623 6.2499237c4.00177 4.00177 6.249939 9.429321 6.249939 15.088669l0 0l0 0c0 11.784973 -9.553589 21.338577 -21.338562 21.338577l-182.07874 0c-11.784973 0 -21.338623 -9.553604 -21.338623 -21.338577z" fill-rule="evenodd"/><path fill="#202124" d="m613.49176 210.83205l0 -15.265625l5.34375 0q1.40625 0 2.515625 0.59375q1.109375 0.59375 1.75 1.640625q0.65625 1.046875 0.65625 2.4375q0 0.90625 -0.375 1.75q-0.359375 0.828125 -1.0625 1.484375q-0.6875 0.640625 -1.6875 1.0q-0.984375 0.359375 -2.21875 0.359375l-3.65625 0l0 -2.140625l4.015625 0q0.71875 0 1.3125 -0.3125q0.59375 -0.328125 0.953125 -0.890625q0.359375 -0.578125 0.359375 -1.28125q0 -0.609375 -0.296875 -1.171875q-0.296875 -0.578125 -0.875 -0.921875q-0.5625 -0.359375 -1.359375 -0.359375l-3.03125 0l0 13.078125l-2.34375 0zm3.53125 -6.96875l2.671875 -0.046875l4.78125 6.890625l0 0.125l-2.71875 0l-4.734375 -6.96875zm13.84375 7.3125q-1.59375 0 -2.859375 -0.75q-1.25 -0.75 -1.96875 -2.046875q-0.71875 -1.296875 -0.71875 -2.96875q0 -1.546875 0.6875 -2.875q0.6875 -1.328125 1.90625 -2.125q1.21875 -0.796875 2.828125 -0.796875q1.6875 0 2.859375 0.734375q1.1875 0.71875 1.796875 1.984375q0.625 1.25 0.625 2.828125q0 0.234375 -0.015625 0.421875q0 0.1875 -0.015625 0.296875l-9.375 0l0 -1.71875l7.125 0q-0.015625 -0.40625 -0.21875 -0.859375q-0.1875 -0.46875 -0.546875 -0.84375q-0.359375 -0.390625 -0.921875 -0.625q-0.546875 -0.25 -1.296875 -0.25q-0.9375 0 -1.671875 0.484375q-0.71875 0.46875 -1.125 1.328125q-0.40625 0.84375 -0.40625 1.984375q0 1.234375 0.46875 2.0625q0.484375 0.828125 1.25 1.265625q0.765625 0.421875 1.65625 0.421875q1.09375 0 1.828125 -0.5q0.734375 -0.5 1.15625 -1.25l1.90625 0.921875q-0.703125 1.265625 -1.921875 2.078125q-1.21875 0.796875 -3.03125 0.796875zm10.807861 0q-1.171875 0 -2.078125 -0.46875q-0.90625 -0.46875 -1.4375 -1.28125q-0.515625 -0.828125 -0.515625 -1.90625q0 -1.171875 0.609375 -1.96875q0.609375 -0.8125 1.625 -1.234375q1.03125 -0.4375 2.265625 -0.4375q0.6875 0 1.265625 0.09375q0.59375 0.09375 1.03125 0.234375q0.4375 0.125 0.703125 0.265625l0 -0.578125q0 -1.0625 -0.78125 -1.703125q-0.765625 -0.640625 -1.984375 -0.640625q-0.828125 0 -1.578125 0.375q-0.734375 0.375 -1.1875 1.015625l-1.578125 -1.21875q0.46875 -0.65625 1.140625 -1.125q0.671875 -0.46875 1.515625 -0.71875q0.84375 -0.265625 1.765625 -0.265625q2.359375 0 3.640625 1.171875q1.28125 1.15625 1.28125 3.25l0 6.796875l-2.234375 0l0 -1.34375l-0.140625 0q-0.265625 0.421875 -0.75 0.8125q-0.484375 0.375 -1.140625 0.625q-0.640625 0.25 -1.4375 0.25zm0.40625 -1.875q0.90625 0 1.59375 -0.421875q0.6875 -0.4375 1.078125 -1.125q0.390625 -0.703125 0.390625 -1.5q-0.484375 -0.28125 -1.15625 -0.453125q-0.65625 -0.1875 -1.40625 -0.1875q-1.40625 0 -2.015625 0.5625q-0.59375 0.546875 -0.59375 1.375q0 0.765625 0.578125 1.265625q0.578125 0.484375 1.53125 0.484375zm12.382324 1.875q-1.484375 0 -2.671875 -0.75q-1.1875 -0.75 -1.875 -2.046875q-0.6875 -1.296875 -0.6875 -2.984375q0 -1.6875 0.6875 -2.984375q0.6875 -1.296875 1.875 -2.046875q1.1875 -0.75 2.671875 -0.75q0.84375 0 1.53125 0.265625q0.6875 0.25 1.1875 0.671875q0.5 0.40625 0.765625 0.875l0.140625 0l-0.140625 -1.515625l0 -4.34375l2.281189 0l0 15.265625l-2.140564 0l0 -1.453125l-0.140625 0q-0.265625 0.453125 -0.765625 0.875q-0.5 0.40625 -1.1875 0.65625q-0.6875 0.265625 -1.53125 0.265625zm0.328125 -2.109375q0.859375 0 1.609375 -0.453125q0.765625 -0.453125 1.21875 -1.265625q0.46875 -0.828125 0.46875 -1.953125q0 -1.125 -0.46875 -1.953125q-0.453125 -0.828125 -1.21875 -1.265625q-0.75 -0.453125 -1.609375 -0.453125q-0.84375 0 -1.59375 0.453125q-0.75 0.4375 -1.21875 1.265625q-0.46875 0.828125 -0.46875 1.953125q0 1.109375 0.46875 1.9375q0.46875 0.828125 1.21875 1.28125q0.75 0.453125 1.59375 0.453125z" fill-rule="nonzero"/><path fill="#ff5145" d="m684.97375 119.14856l0 0c0 -14.620331 11.852112 -26.472443 26.472473 -26.472443l0 0c7.020874 0 13.754272 2.7890549 18.718811 7.7535934c4.9645386 4.964546 7.753601 11.697922 7.753601 18.71885l0 0c0 14.620316 -11.852112 26.472443 -26.472412 26.472443l0 0c-14.620361 0 -26.472473 -11.852127 -26.472473 -26.472443z" fill-rule="evenodd"/><path fill="#ffffff" d="m715.1794 113.38366l-3.7472534 3.7512665l-3.720581 -3.7512665l-2.0115967 2.0409317l3.720581 3.7232666l-3.720581 3.7512665l2.0115967 2.0129395l3.720581 -3.7232742l3.7472534 3.7232742l2.0116577 -2.0129395l-3.720642 -3.7512665l3.720642 -3.7232666l-2.0116577 -2.0409317zm-3.7472534 -8.632965c-7.9091187 0 -14.383789 6.4533997 -14.383789 14.397163c0 7.9437714 6.4746704 14.397171 14.383789 14.397171c7.935791 0 14.410522 -6.4533997 14.410522 -14.397171c0 -7.9437637 -6.4747314 -14.397163 -14.410522 -14.397163zm0 25.92556c-6.3654175 0 -11.491028 -5.2402954 -11.491028 -11.528397c0 -6.316086 5.208313 -11.501732 11.491028 -11.501732c6.3094482 0 11.517761 5.185646 11.517761 11.501732c0 6.288101 -5.208313 11.528397 -11.517761 11.528397z" fill-rule="evenodd"/><path fill="#eeeeee" d="m498.2848 284.77643l0 0c0 -7.890442 6.396454 -14.286926 14.286926 -14.286926l248.2135 0c3.7891846 0 7.4230957 1.5052185 10.102417 4.18454c2.6793213 2.6793213 4.1845703 6.313263 4.1845703 10.102386l0 160.18204c0 7.8904724 -6.3964844 14.286926 -14.286987 14.286926l-248.2135 0c-7.8904724 0 -14.286926 -6.396454 -14.286926 -14.286926z" fill-rule="evenodd"/><path fill="#ffffff" d="m524.30054 302.28574l0 0c0 -6.2851257 5.095093 -11.3802185 11.380249 -11.3802185l201.99542 0c3.0182495 0 5.912842 1.1989746 8.047058 3.333191c2.1342163 2.1342163 3.333191 5.0288086 3.333191 8.047028l0 60.893097c0 6.2851257 -5.095093 11.3802185 -11.380249 11.3802185l-201.99542 0c-6.2851562 0 -11.380249 -5.095093 -11.380249 -11.3802185z" fill-rule="evenodd"/><path stroke="#202124" stroke-width="2.0" stroke-miterlimit="400.0" stroke-linecap="butt" d="m524.30054 302.28574l0 0c0 -6.2851257 5.095093 -11.3802185 11.380249 -11.3802185l201.99542 0c3.0182495 0 5.912842 1.1989746 8.047058 3.333191c2.1342163 2.1342163 3.333191 5.0288086 3.333191 8.047028l0 60.893097c0 6.2851257 -5.095093 11.3802185 -11.380249 11.3802185l-201.99542 0c-6.2851562 0 -11.380249 -5.095093 -11.380249 -11.3802185z" fill-rule="evenodd"/><path fill="#202124" d="m547.89935 341.9243l0 -20.046875l3.640625 0l9.078125 14.734375l0.15625 0l-0.15625 -3.875l0 -10.859375l3.046875 0l0 20.046875l-3.1875 0l-9.53125 -15.484375l-0.15625 0l0.15625 3.859375l0 11.625l-3.046875 0zm26.23883 0.453125q-2.21875 0 -3.90625 -1.0q-1.671875 -1.015625 -2.625 -2.734375q-0.9375 -1.734375 -0.9375 -3.859375q0 -2.125 0.9375 -3.84375q0.953125 -1.734375 2.625 -2.734375q1.6875 -1.015625 3.90625 -1.015625q2.1875 0 3.859375 1.03125q1.6875 1.015625 2.640625 2.734375q0.953125 1.703125 0.953125 3.828125q0 2.125 -0.953125 3.859375q-0.953125 1.71875 -2.640625 2.734375q-1.671875 1.0 -3.859375 1.0zm0 -2.78125q1.171875 0 2.171875 -0.5625q1.015625 -0.578125 1.640625 -1.65625q0.640625 -1.078125 0.640625 -2.59375q0 -1.515625 -0.640625 -2.59375q-0.625 -1.078125 -1.640625 -1.640625q-1.0 -0.578125 -2.171875 -0.578125q-1.171875 0 -2.203125 0.578125q-1.015625 0.5625 -1.65625 1.640625q-0.625 1.078125 -0.625 2.59375q0 1.515625 0.625 2.59375q0.640625 1.078125 1.671875 1.65625q1.046875 0.5625 2.1875 0.5625zm16.940063 2.78125q-2.21875 0 -3.90625 -1.0q-1.671875 -1.015625 -2.625 -2.734375q-0.9375 -1.734375 -0.9375 -3.859375q0 -2.125 0.9375 -3.84375q0.953125 -1.734375 2.625 -2.734375q1.6875 -1.015625 3.90625 -1.015625q2.1875 0 3.859375 1.03125q1.6875 1.015625 2.640625 2.734375q0.953125 1.703125 0.953125 3.828125q0 2.125 -0.953125 3.859375q-0.953125 1.71875 -2.640625 2.734375q-1.671875 1.0 -3.859375 1.0zm0 -2.78125q1.171875 0 2.171875 -0.5625q1.015625 -0.578125 1.640625 -1.65625q0.640625 -1.078125 0.640625 -2.59375q0 -1.515625 -0.640625 -2.59375q-0.625 -1.078125 -1.640625 -1.640625q-1.0 -0.578125 -2.171875 -0.578125q-1.171875 0 -2.203125 0.578125q-1.015625 0.5625 -1.65625 1.640625q-0.625 1.078125 -0.625 2.59375q0 1.515625 0.625 2.59375q0.640625 1.078125 1.671875 1.65625q1.046875 0.5625 2.1875 0.5625zm9.941284 2.328125l0 -14.28125l2.859375 0l0 1.96875l0.15625 0q0.625 -1.046875 1.84375 -1.734375q1.21875 -0.6875 2.671875 -0.6875q2.625 0 3.9375 1.5625q1.328125 1.546875 1.328125 4.15625l0 9.015625l-3.0 0l0 -8.625q0 -1.734375 -0.875 -2.53125q-0.859375 -0.796875 -2.265625 -0.796875q-1.078125 0 -1.890625 0.609375q-0.8125 0.59375 -1.28125 1.578125q-0.46875 0.96875 -0.46875 2.09375l0 7.671875l-3.015625 0zm22.755737 0.453125q-2.09375 0 -3.75 -0.984375q-1.640625 -0.984375 -2.578125 -2.6875q-0.9375 -1.703125 -0.9375 -3.890625q0 -2.046875 0.890625 -3.78125q0.890625 -1.734375 2.5 -2.78125q1.609375 -1.0625 3.71875 -1.0625q2.203125 0 3.75 0.953125q1.5625 0.953125 2.375 2.609375q0.8125 1.65625 0.8125 3.71875q0 0.3125 -0.015625 0.5625q-0.015625 0.25 -0.03125 0.390625l-12.296875 0l0 -2.265625l9.34375 0q-0.015625 -0.53125 -0.28125 -1.125q-0.25 -0.609375 -0.734375 -1.109375q-0.46875 -0.515625 -1.203125 -0.828125q-0.71875 -0.328125 -1.703125 -0.328125q-1.21875 0 -2.171875 0.640625q-0.953125 0.625 -1.484375 1.75q-0.53125 1.109375 -0.53125 2.59375q0 1.625 0.609375 2.71875q0.625 1.09375 1.625 1.65625q1.015625 0.5625 2.1875 0.5625q1.421875 0 2.390625 -0.65625q0.96875 -0.671875 1.53125 -1.640625l2.484375 1.203125q-0.921875 1.671875 -2.515625 2.734375q-1.59375 1.046875 -3.984375 1.046875z" fill-rule="nonzero"/><path fill="#ffbb00" d="m524.3014 416.92947l0 0c0 -11.784973 9.55365 -21.338593 21.338623 -21.338593l182.07874 0c5.6593018 0 11.086853 2.248169 15.088623 6.249939c4.00177 4.00177 6.249939 9.429321 6.249939 15.088654l0 0l0 0c0 11.784973 -9.553589 21.338593 -21.338562 21.338593l-182.07874 0c-11.784973 0 -21.338623 -9.553619 -21.338623 -21.338593z" fill-rule="evenodd"/><path stroke="#202124" stroke-width="2.0" stroke-linejoin="round" stroke-linecap="butt" d="m524.3014 416.92947l0 0c0 -11.784973 9.55365 -21.338593 21.338623 -21.338593l182.07874 0c5.6593018 0 11.086853 2.248169 15.088623 6.249939c4.00177 4.00177 6.249939 9.429321 6.249939 15.088654l0 0l0 0c0 11.784973 -9.553589 21.338593 -21.338562 21.338593l-182.07874 0c-11.784973 0 -21.338623 -9.553619 -21.338623 -21.338593z" fill-rule="evenodd"/><path fill="#202124" d="m614.1951 424.4095l-4.09375 -15.265625l2.609375 0l2.421875 9.90625l0.265625 1.328125l0.125 0l0.3125 -1.328125l3.078125 -9.90625l2.34375 0l2.9375 9.90625l0.328125 1.3125l0.125 0l0.265625 -1.3125l2.421875 -9.90625l2.578125 0l-4.03125 15.265625l-2.46875 0l-2.921875 -10.125l-0.34375 -1.4375l-0.125 0l-0.359375 1.4375l-3.046875 10.125l-2.421875 0zm16.810974 0l0 -10.875l2.171875 0l0 1.59375l0.125 0q0.265625 -0.546875 0.734375 -0.96875q0.484375 -0.4375 1.109375 -0.6875q0.640625 -0.265625 1.3125 -0.265625q0.453125 0 0.765625 0.0625q0.3125 0.046875 0.5625 0.15625l0 2.390625q-0.40625 -0.171875 -0.828125 -0.28125q-0.40625 -0.109375 -0.859375 -0.109375q-0.8125 0 -1.4375 0.4375q-0.625 0.4375 -1.0 1.171875q-0.359375 0.71875 -0.359375 1.609375l0 5.765625l-2.296875 0zm8.724487 0l0 -10.875l2.296875 0l0 10.875l-2.296875 0zm1.15625 -12.484375q-0.640625 0 -1.109375 -0.453125q-0.453125 -0.453125 -0.453125 -1.09375q0 -0.65625 0.453125 -1.09375q0.46875 -0.4375 1.109375 -0.4375q0.65625 0 1.09375 0.4375q0.453125 0.4375 0.453125 1.09375q0 0.640625 -0.453125 1.09375q-0.4375 0.453125 -1.09375 0.453125zm3.1472778 1.609375l6.875 0l0 2.0l-6.875 0l0 -2.0zm1.90625 7.71875l0 -10.796875l2.296875 0l0 10.3125q0 0.796875 0.328125 1.234375q0.328125 0.421875 1.125 0.421875q0.390625 0 0.6875 -0.109375q0.296875 -0.125 0.59375 -0.296875l0 2.234375q-0.359375 0.15625 -0.765625 0.234375q-0.40625 0.09375 -0.96875 0.09375q-1.515625 0 -2.40625 -0.875q-0.890625 -0.890625 -0.890625 -2.453125zm11.725159 3.5q-1.59375 0 -2.859375 -0.75q-1.25 -0.75 -1.96875 -2.046875q-0.71875 -1.296875 -0.71875 -2.96875q0 -1.546875 0.6875 -2.875q0.6875 -1.328125 1.90625 -2.125q1.21875 -0.796875 2.828125 -0.796875q1.6875 0 2.859375 0.734375q1.1875 0.71875 1.796875 1.984375q0.625 1.25 0.625 2.828125q0 0.234375 -0.015625 0.421875q0 0.1875 -0.015625 0.296875l-9.375 0l0 -1.71875l7.125 0q-0.015625 -0.40625 -0.21875 -0.859375q-0.1875 -0.46875 -0.546875 -0.84375q-0.359375 -0.390625 -0.921875 -0.625q-0.546875 -0.25 -1.296875 -0.25q-0.9375 0 -1.671875 0.484375q-0.71875 0.46875 -1.125 1.328125q-0.40625 0.84375 -0.40625 1.984375q0 1.234375 0.46875 2.0625q0.484375 0.828125 1.25 1.265625q0.765625 0.421875 1.65625 0.421875q1.09375 0 1.828125 -0.5q0.734375 -0.5 1.15625 -1.25l1.90625 0.921875q-0.703125 1.265625 -1.921875 2.078125q-1.21875 0.796875 -3.03125 0.796875z" fill-rule="nonzero"/><path fill="#ff5145" d="m684.97375 332.72598l0 0c0 -14.620331 11.852112 -26.472443 26.472473 -26.472443l0 0c7.020874 0 13.754272 2.7890625 18.718811 7.753601c4.9645386 4.9645386 7.753601 11.6979065 7.753601 18.718842l0 0c0 14.620331 -11.852112 26.472443 -26.472412 26.472443l0 0c-14.620361 0 -26.472473 -11.852112 -26.472473 -26.472443z" fill-rule="evenodd"/><path fill="#ffffff" d="m715.1794 326.9611l-3.7472534 3.7512512l-3.720581 -3.7512512l-2.0115967 2.040924l3.720581 3.7232666l-3.720581 3.7512817l2.0115967 2.0129395l3.720581 -3.7232666l3.7472534 3.7232666l2.0116577 -2.0129395l-3.720642 -3.7512817l3.720642 -3.7232666l-2.0116577 -2.040924zm-3.7472534 -8.632965c-7.9091187 0 -14.383789 6.4533997 -14.383789 14.397156c0 7.9437866 6.4746704 14.397186 14.383789 14.397186c7.935791 0 14.410522 -6.4533997 14.410522 -14.397186c0 -7.943756 -6.4747314 -14.397156 -14.410522 -14.397156zm0 25.925568c-6.3654175 0 -11.491028 -5.2402954 -11.491028 -11.528412c0 -6.3160706 5.208313 -11.5017395 11.491028 -11.5017395c6.3094482 0 11.517761 5.185669 11.517761 11.5017395c0 6.2881165 -5.208313 11.528412 -11.517761 11.528412z" fill-rule="evenodd"/><path fill="#000000" fill-opacity="0.0" d="m362.6081 258.07864c33.91922 0 50.877808 26.700806 67.83844 53.40158c16.960632 26.700775 33.92328 53.40158 67.84659 53.40158" fill-rule="evenodd"/><path stroke="#000000" stroke-width="2.0" stroke-linejoin="round" stroke-linecap="butt" d="m362.60806 258.07864c33.91925 0 50.87784 26.700775 67.83847 53.40158c8.480316 13.350372 16.96112 26.700775 27.562286 36.713593c5.3005676 5.0064087 11.131226 9.178406 17.756958 12.098785c3.3128662 1.4601746 6.8244934 2.607483 10.567993 3.3897705l0.019042969 0.0038146973" fill-rule="evenodd"/><path fill="#000000" stroke="#000000" stroke-width="2.0" stroke-linecap="butt" d="m486.02368 366.97324l9.360168 -2.3827515l-8.701904 -4.1913147z" fill-rule="evenodd"/><path fill="#000000" fill-opacity="0.0" d="m362.6081 258.07864c33.91922 0 50.877808 -26.70079 67.83844 -53.401566c16.960632 -26.70079 33.92328 -53.40158 67.84659 -53.40158" fill-rule="evenodd"/><path stroke="#000000" stroke-width="2.0" stroke-linejoin="round" stroke-linecap="butt" d="m362.60806 258.07864c33.91925 0 50.87784 -26.70079 67.83847 -53.40158c8.480316 -13.350388 16.96112 -26.70079 27.562286 -36.713577c5.3005676 -5.0063934 11.131226 -9.1783905 17.756958 -12.098785c3.3128662 -1.4602051 6.8244934 -2.6074982 10.567993 -3.3897552l0.019042969 -0.0038452148" fill-rule="evenodd"/><path fill="#000000" stroke="#000000" stroke-width="2.0" stroke-linecap="butt" d="m486.68195 155.75813l8.701904 -4.19133l-9.360168 -2.3827362z" fill-rule="evenodd"/></g></svg>