<svg version="1.1" viewBox="0.0 0.0 842.7506561679791 516.1601049868766" fill="none" stroke="none" stroke-linecap="square" stroke-miterlimit="10" xmlns:xlink="http://www.w3.org/1999/xlink" xmlns="http://www.w3.org/2000/svg"><clipPath id="p.0"><path d="m0 0l842.7507 0l0 516.1601l-842.7507 0l0 -516.1601z" clip-rule="nonzero"/></clipPath><g clip-path="url(#p.0)"><path fill="#000000" fill-opacity="0.0" d="m0 0l842.7507 0l0 516.1601l-842.7507 0z" fill-rule="evenodd"/><path fill="#428eff" d="m39.086613 215.03923l0 0c0 -8.497284 6.8884087 -15.385681 15.385693 -15.385681l298.64594 0c4.080536 0 7.993927 1.6209869 10.879303 4.506363c2.885376 2.885376 4.506378 6.7987823 4.506378 10.879318l0 86.079025c0 8.497284 -6.888397 15.385681 -15.385681 15.385681l-298.64594 0c-8.497284 0 -15.385693 -6.888397 -15.385693 -15.385681z" fill-rule="evenodd"/><path stroke="#202124" stroke-width="3.0" stroke-miterlimit="400.0" stroke-linecap="butt" d="m39.086613 215.03923l0 0c0 -8.497284 6.8884087 -15.385681 15.385693 -15.385681l298.64594 0c4.080536 0 7.993927 1.6209869 10.879303 4.506363c2.885376 2.885376 4.506378 6.7987823 4.506378 10.879318l0 86.079025c0 8.497284 -6.888397 15.385681 -15.385681 15.385681l-298.64594 0c-8.497284 0 -15.385693 -6.888397 -15.385693 -15.385681z" fill-rule="evenodd"/><path fill="#202124" d="m62.0148 267.27072l7.5625 -20.04686l3.5 0l7.578125 20.04686l-3.375 0l-5.109375 -14.14061l-0.75 -2.296875l-0.171875 0l-0.75 2.296875l-5.09375 14.14061l-3.390625 0zm9.0625 -5.15625l0 -2.859375l4.65625 0l1.0 2.859375l-5.65625 0zm-5.453125 0l1.015625 -2.859375l4.4375 0l0 2.859375l-5.453125 0zm23.411835 5.609375q-2.15625 0 -3.828125 -0.984375q-1.65625 -0.984375 -2.59375 -2.703125q-0.9375 -1.71875 -0.9375 -3.90625q0 -2.1875 0.9375 -3.890625q0.9375 -1.7031097 2.59375 -2.7031097q1.671875 -1.0 3.828125 -1.0q2.375 0 4.015625 1.078125q1.640625 1.0625 2.34375 2.8749847l-2.75 1.125q-0.5 -1.15625 -1.4375 -1.7187347q-0.9375 -0.578125 -2.234375 -0.578125q-1.171875 0 -2.15625 0.609375q-0.96875 0.59373474 -1.5625 1.6562347q-0.59375 1.0625 -0.59375 2.546875q0 1.453125 0.59375 2.546875q0.59375 1.09375 1.5625 1.6875q0.984375 0.578125 2.15625 0.578125q1.375 0 2.328125 -0.609375q0.953125 -0.625 1.484375 -1.734375l2.6875 1.171875q-0.78125 1.703125 -2.421875 2.828125q-1.640625 1.125 -4.015625 1.125zm9.042694 -0.453125l0 -20.04686l3.015625 0l0 5.484375l-0.15625 2.25l0.15625 0q0.59375 -1.046875 1.8125 -1.734375q1.21875 -0.6875 2.703125 -0.6875q1.796875 0 2.984375 0.734375q1.1875 0.734375 1.765625 2.015625q0.59375 1.2656097 0.59375 2.9687347l0 9.015625l-3.0 0l0 -8.625q0 -1.140625 -0.4375 -1.875q-0.421875 -0.734375 -1.125 -1.0937347q-0.703125 -0.359375 -1.5625 -0.359375q-1.09375 0 -1.9375 0.625q-0.84375 0.60935974 -1.328125 1.6093597q-0.46875 0.984375 -0.46875 2.109375l0 7.609375l-3.015625 0zm16.542816 0l0 -14.281235l3.03125 0l0 14.281235l-3.03125 0zm1.515625 -16.374985q-0.84375 0 -1.453125 -0.59375q-0.59375 -0.609375 -0.59375 -1.453125q0 -0.875 0.59375 -1.4375q0.609375 -0.578125 1.453125 -0.578125q0.875 0 1.453125 0.578125q0.59375 0.5625 0.59375 1.4375q0 0.84375 -0.59375 1.453125q-0.578125 0.59375 -1.453125 0.59375zm11.641281 16.82811q-2.09375 0 -3.75 -0.984375q-1.640625 -0.984375 -2.578125 -2.6875q-0.9375 -1.703125 -0.9375 -3.890625q0 -2.046875 0.890625 -3.78125q0.890625 -1.7343597 2.5 -2.7812347q1.609375 -1.0625 3.71875 -1.0625q2.203125 0 3.75 0.953125q1.5625 0.953125 2.375 2.6093597q0.8125 1.65625 0.8125 3.71875q0 0.3125 -0.015625 0.5625q-0.015625 0.25 -0.03125 0.390625l-12.296875 0l0 -2.265625l9.34375 0q-0.015625 -0.53125 -0.28125 -1.125q-0.25 -0.609375 -0.734375 -1.109375q-0.46875 -0.51560974 -1.203125 -0.82810974q-0.71875 -0.328125 -1.703125 -0.328125q-1.21875 0 -2.171875 0.640625q-0.953125 0.62498474 -1.484375 1.7499847q-0.53125 1.109375 -0.53125 2.59375q0 1.625 0.609375 2.71875q0.625 1.09375 1.625 1.65625q1.015625 0.5625 2.1875 0.5625q1.421875 0 2.390625 -0.65625q0.96875 -0.671875 1.53125 -1.640625l2.484375 1.203125q-0.921875 1.671875 -2.515625 2.734375q-1.59375 1.046875 -3.984375 1.046875zm13.648193 -0.453125l-5.90625 -14.281235l3.359375 0l4.0 10.39061l0.140625 0l4.078125 -10.39061l3.3125 0l-5.96875 14.281235l-3.015625 0zm17.039948 0.453125q-2.09375 0 -3.75 -0.984375q-1.640625 -0.984375 -2.578125 -2.6875q-0.9375 -1.703125 -0.9375 -3.890625q0 -2.046875 0.890625 -3.78125q0.890625 -1.7343597 2.5 -2.7812347q1.609375 -1.0625 3.71875 -1.0625q2.203125 0 3.75 0.953125q1.5625 0.953125 2.375 2.6093597q0.8125 1.65625 0.8125 3.71875q0 0.3125 -0.015625 0.5625q-0.015625 0.25 -0.03125 0.390625l-12.296875 0l0 -2.265625l9.34375 0q-0.015625 -0.53125 -0.28125 -1.125q-0.25 -0.609375 -0.734375 -1.109375q-0.46875 -0.51560974 -1.203125 -0.82810974q-0.71875 -0.328125 -1.703125 -0.328125q-1.21875 0 -2.171875 0.640625q-0.953125 0.62498474 -1.484375 1.7499847q-0.53125 1.109375 -0.53125 2.59375q0 1.625 0.609375 2.71875q0.625 1.09375 1.625 1.65625q1.015625 0.5625 2.1875 0.5625q1.421875 0 2.390625 -0.65625q0.96875 -0.671875 1.53125 -1.640625l2.484375 1.203125q-0.921875 1.671875 -2.515625 2.734375q-1.59375 1.046875 -3.984375 1.046875zm9.584442 -0.453125l0 -14.281235l2.859375 0l0 1.96875l0.15625 0q0.421875 -0.703125 1.09375 -1.234375q0.671875 -0.53125 1.53125 -0.859375q0.859375 -0.328125 1.78125 -0.328125q1.59375 0 2.703125 0.765625q1.125 0.75 1.609375 1.90625q0.703125 -1.125 1.90625 -1.890625q1.203125 -0.78125 2.9375 -0.78125q2.515625 0 3.75 1.53125q1.234375 1.53125 1.234375 4.0468597l0 9.15625l-3.0 0l0 -8.65625q0 -1.734375 -0.75 -2.515625q-0.734375 -0.78123474 -2.046875 -0.78123474q-1.046875 0 -1.828125 0.578125q-0.78125 0.56248474 -1.21875 1.5468597q-0.421875 0.984375 -0.421875 2.1875l0 7.640625l-3.0 0l0 -8.65625q0 -1.703125 -0.765625 -2.5q-0.75 -0.79685974 -2.125 -0.79685974q-0.96875 0 -1.75 0.59375q-0.765625 0.57810974 -1.203125 1.5624847q-0.4375 0.984375 -0.4375 2.1875l0 7.609375l-3.015625 0zm31.49173 0.453125q-2.09375 0 -3.75 -0.984375q-1.640625 -0.984375 -2.578125 -2.6875q-0.9375 -1.703125 -0.9375 -3.890625q0 -2.046875 0.890625 -3.78125q0.890625 -1.7343597 2.5 -2.7812347q1.609375 -1.0625 3.71875 -1.0625q2.203125 0 3.75 0.953125q1.5625 0.953125 2.375 2.6093597q0.8125 1.65625 0.8125 3.71875q0 0.3125 -0.015625 0.5625q-0.015625 0.25 -0.03125 0.390625l-12.296875 0l0 -2.265625l9.34375 0q-0.015625 -0.53125 -0.28125 -1.125q-0.25 -0.609375 -0.734375 -1.109375q-0.46875 -0.51560974 -1.203125 -0.82810974q-0.71875 -0.328125 -1.703125 -0.328125q-1.21875 0 -2.171875 0.640625q-0.953125 0.62498474 -1.484375 1.7499847q-0.53125 1.109375 -0.53125 2.59375q0 1.625 0.609375 2.71875q0.625 1.09375 1.625 1.65625q1.015625 0.5625 2.1875 0.5625q1.421875 0 2.390625 -0.65625q0.96875 -0.671875 1.53125 -1.640625l2.484375 1.203125q-0.921875 1.671875 -2.515625 2.734375q-1.59375 1.046875 -3.984375 1.046875zm9.584442 -0.453125l0 -14.281235l2.859375 0l0 1.96875l0.15625 0q0.625 -1.046875 1.84375 -1.734375q1.21875 -0.6875 2.671875 -0.6875q2.625 0 3.9375 1.5625q1.328125 1.546875 1.328125 4.1562347l0 9.015625l-3.0 0l0 -8.625q0 -1.734375 -0.875 -2.53125q-0.859375 -0.79685974 -2.265625 -0.79685974q-1.078125 0 -1.890625 0.609375q-0.8125 0.59373474 -1.28125 1.5781097q-0.46875 0.96875 -0.46875 2.09375l0 7.671875l-3.015625 0zm14.555695 -14.281235l9.015625 0l0 2.640625l-9.015625 0l0 -2.640625zm2.5 10.14061l0 -14.17186l3.015625 0l0 13.531235q0 1.0625 0.4375 1.625q0.4375 0.546875 1.46875 0.546875q0.5 0 0.890625 -0.140625q0.390625 -0.15625 0.796875 -0.390625l0 2.9375q-0.484375 0.203125 -1.015625 0.3125q-0.53125 0.109375 -1.265625 0.109375q-1.984375 0 -3.15625 -1.15625q-1.171875 -1.15625 -1.171875 -3.203125zm14.915543 4.59375q-1.703125 0 -2.96875 -0.515625q-1.25 -0.53125 -2.0625 -1.40625q-0.8125 -0.890625 -1.203125 -1.921875l2.703125 -1.171875q0.515625 1.140625 1.453125 1.75q0.9375 0.59375 2.171875 0.59375q1.109375 0 1.921875 -0.40625q0.8125 -0.40625 0.8125 -1.328125q0 -0.578125 -0.375 -0.953125q-0.375 -0.390625 -1.015625 -0.640625q-0.625 -0.25 -1.4375 -0.4375l-1.703125 -0.40625q-1.015625 -0.25 -1.921875 -0.796875q-0.90625 -0.546875 -1.46875 -1.375q-0.5625 -0.84375 -0.5625 -2.0q0 -1.2812347 0.734375 -2.2187347q0.75 -0.9375 2.0 -1.4375q1.265625 -0.515625 2.734375 -0.515625q1.34375 0 2.4375 0.359375q1.109375 0.34375 1.9375 1.03125q0.828125 0.6875 1.296875 1.703125l-2.59375 1.1718597q-0.484375 -0.95310974 -1.296875 -1.3281097q-0.8125 -0.390625 -1.765625 -0.390625q-1.0625 0 -1.78125 0.4375q-0.703125 0.4375 -0.703125 1.1406097q0 0.71875 0.625 1.140625q0.640625 0.421875 1.5625 0.671875l2.0625 0.515625q2.140625 0.53125 3.203125 1.609375q1.0625 1.078125 1.0625 2.609375q0 1.375 -0.796875 2.40625q-0.78125 1.015625 -2.109375 1.5625q-1.328125 0.546875 -2.953125 0.546875z" fill-rule="nonzero"/><path fill="#ffffff" d="m287.27274 257.2756l0 0c0 -17.194763 13.939087 -31.133865 31.13385 -31.133865l0 0c8.257202 0 16.176239 3.2801514 22.014954 9.1188965c5.838745 5.83873 9.1188965 13.757736 9.1188965 22.014969l0 0c0 17.194733 -13.939087 31.13385 -31.13385 31.13385l0 0c-17.194763 0 -31.13385 -13.939117 -31.13385 -31.13385z" fill-rule="evenodd"/><path fill="#ffffff" d="m357.5248 672.03955l13.654663 -10.929871l3.0376892 2.4404907l-16.805267 13.14801l-16.842926 -13.14801l3.0753174 -2.3276978l13.880524 10.817078zm0.07525635 -4.7697754l-13.72995 -10.818726l-3.0753174 -2.4404907l16.805267 -13.14801l16.842926 13.14801l-3.0753174 2.4404907l-13.767609 10.818726z" fill-rule="evenodd"/><path fill="#eeeeee" d="m504.26285 71.20032l0 0c0 -7.8904533 6.3964844 -14.28693 14.286957 -14.28693l270.8277 0c3.7891235 0 7.4230957 1.5052261 10.102356 4.1845436c2.6793213 2.6793213 4.1845703 6.3132553 4.1845703 10.102386l0 160.18204c0 7.890457 -6.3964844 14.286942 -14.286926 14.286942l-270.8277 0c-7.8904724 0 -14.286957 -6.3964844 -14.286957 -14.286942z" fill-rule="evenodd"/><path fill="#ffffff" d="m532.4043 88.71094l0 0c0 -6.2851257 5.095154 -11.380226 11.380249 -11.380226l223.63324 0c3.0182495 0 5.912842 1.1989822 8.047058 3.333191c2.1342163 2.134201 3.333191 5.0288086 3.333191 8.047035l0 60.89308c0 6.2851257 -5.095093 11.380234 -11.380249 11.380234l-223.63324 0c-6.285095 0 -11.380249 -5.095108 -11.380249 -11.380234z" fill-rule="evenodd"/><path stroke="#202124" stroke-width="2.0" stroke-miterlimit="400.0" stroke-linecap="butt" d="m532.4043 88.71094l0 0c0 -6.2851257 5.095154 -11.380226 11.380249 -11.380226l223.63324 0c3.0182495 0 5.912842 1.1989822 8.047058 3.333191c2.1342163 2.134201 3.333191 5.0288086 3.333191 8.047035l0 60.89308c0 6.2851257 -5.095093 11.380234 -11.380249 11.380234l-223.63324 0c-6.285095 0 -11.380249 -5.095108 -11.380249 -11.380234z" fill-rule="evenodd"/><path fill="#202124" d="m556.0031 128.34947l0 -20.046867l12.15625 0l0 2.90625l-9.078125 0l0 14.234375l9.078125 0l0 2.9062424l-12.15625 0zm1.6875 -8.562492l0 -2.921875l9.578125 0l0 2.921875l-9.578125 0zm17.612305 8.562492l-5.90625 -14.281242l3.359375 0l4.0 10.390625l0.140625 0l4.078125 -10.390625l3.3125 0l-5.96875 14.281242l-3.015625 0zm17.039978 0.453125q-2.09375 0 -3.75 -0.9843674q-1.640625 -0.984375 -2.578125 -2.6875q-0.9375 -1.703125 -0.9375 -3.890625q0 -2.046875 0.890625 -3.78125q0.890625 -1.734375 2.5 -2.78125q1.609375 -1.0625 3.71875 -1.0625q2.203125 0 3.75 0.953125q1.5625 0.953125 2.375 2.609375q0.8125 1.65625 0.8125 3.71875q0 0.3125 -0.015625 0.5625q-0.015625 0.25 -0.03125 0.390625l-12.296875 0l0 -2.265625l9.34375 0q-0.015625 -0.53125 -0.28125 -1.125q-0.25 -0.609375 -0.734375 -1.109375q-0.46875 -0.515625 -1.203125 -0.828125q-0.71875 -0.328125 -1.703125 -0.328125q-1.21875 0 -2.171875 0.640625q-0.953125 0.625 -1.484375 1.75q-0.53125 1.109375 -0.53125 2.59375q0 1.625 0.609375 2.71875q0.625 1.09375 1.625 1.65625q1.015625 0.5625 2.1875 0.5625q1.421875 0 2.390625 -0.65625q0.96875 -0.671875 1.53125 -1.640625l2.484375 1.203125q-0.921875 1.671875 -2.515625 2.734375q-1.59375 1.0468674 -3.984375 1.0468674zm9.584412 -0.453125l0 -14.281242l2.859375 0l0 2.09375l0.15625 0q0.34375 -0.71875 0.96875 -1.28125q0.640625 -0.5625 1.453125 -0.890625q0.828125 -0.34375 1.734375 -0.34375q0.578125 0 0.984375 0.078125q0.40625 0.0625 0.75 0.203125l0 3.140625q-0.53125 -0.234375 -1.078125 -0.359375q-0.546875 -0.140625 -1.140625 -0.140625q-1.0625 0 -1.890625 0.578125q-0.828125 0.5625 -1.3125 1.515625q-0.46875 0.953125 -0.46875 2.125l0 7.5624924l-3.015625 0zm16.719055 5.34375q-0.09375 0.203125 -0.1875 0.40625q-0.09375 0.21875 -0.125 0.296875l-3.21875 0q0.140625 -0.3125 0.40625 -0.875q0.265625 -0.546875 0.515625 -1.109375q0.171875 -0.359375 0.34375 -0.78125q0.1875 -0.421875 0.390625 -0.875q0.21875 -0.453125 0.421875 -0.859375l2.03125 -4.5156174l0.65625 -1.5625l3.9375 -9.75l3.328125 0l-7.390625 17.031242q-0.1875 0.46875 -0.4375 1.0q-0.234375 0.53125 -0.421875 0.96875q-0.171875 0.4375 -0.25 0.625zm-0.234375 -5.7656174l-6.125 -13.859375l3.359375 0l4.09375 9.75l0.328125 0l-1.65625 4.109375zm16.918213 0.8749924q-2.21875 0 -3.90625 -0.9999924q-1.671875 -1.015625 -2.625 -2.734375q-0.9375 -1.734375 -0.9375 -3.859375q0 -2.125 0.9375 -3.84375q0.953125 -1.734375 2.625 -2.734375q1.6875 -1.015625 3.90625 -1.015625q2.1875 0 3.859375 1.03125q1.6875 1.015625 2.640625 2.734375q0.953125 1.703125 0.953125 3.828125q0 2.125 -0.953125 3.859375q-0.953125 1.71875 -2.640625 2.734375q-1.671875 0.9999924 -3.859375 0.9999924zm0 -2.7812424q1.171875 0 2.171875 -0.5625q1.015625 -0.578125 1.640625 -1.65625q0.640625 -1.078125 0.640625 -2.59375q0 -1.515625 -0.640625 -2.59375q-0.625 -1.078125 -1.640625 -1.640625q-1.0 -0.578125 -2.171875 -0.578125q-1.171875 0 -2.203125 0.578125q-1.015625 0.5625 -1.65625 1.640625q-0.625 1.078125 -0.625 2.59375q0 1.515625 0.625 2.59375q0.640625 1.078125 1.671875 1.65625q1.046875 0.5625 2.1875 0.5625zm9.941284 2.3281174l0 -14.281242l2.859375 0l0 1.96875l0.15625 0q0.625 -1.046875 1.84375 -1.734375q1.21875 -0.6875 2.671875 -0.6875q2.625 0 3.9375 1.5625q1.328125 1.546875 1.328125 4.15625l0 9.015617l-3.0 0l0 -8.624992q0 -1.734375 -0.875 -2.53125q-0.859375 -0.796875 -2.265625 -0.796875q-1.078125 0 -1.890625 0.609375q-0.8125 0.59375 -1.28125 1.578125q-0.46875 0.96875 -0.46875 2.09375l0 7.6718674l-3.015625 0zm22.755676 0.453125q-2.09375 0 -3.75 -0.9843674q-1.640625 -0.984375 -2.578125 -2.6875q-0.9375 -1.703125 -0.9375 -3.890625q0 -2.046875 0.890625 -3.78125q0.890625 -1.734375 2.5 -2.78125q1.609375 -1.0625 3.71875 -1.0625q2.203125 0 3.75 0.953125q1.5625 0.953125 2.375 2.609375q0.8125 1.65625 0.8125 3.71875q0 0.3125 -0.015625 0.5625q-0.015625 0.25 -0.03125 0.390625l-12.296875 0l0 -2.265625l9.34375 0q-0.015625 -0.53125 -0.28125 -1.125q-0.25 -0.609375 -0.734375 -1.109375q-0.46875 -0.515625 -1.203125 -0.828125q-0.71875 -0.328125 -1.703125 -0.328125q-1.21875 0 -2.171875 0.640625q-0.953125 0.625 -1.484375 1.75q-0.53125 1.109375 -0.53125 2.59375q0 1.625 0.609375 2.71875q0.625 1.09375 1.625 1.65625q1.015625 0.5625 2.1875 0.5625q1.421875 0 2.390625 -0.65625q0.96875 -0.671875 1.53125 -1.640625l2.484375 1.203125q-0.921875 1.671875 -2.515625 2.734375q-1.59375 1.0468674 -3.984375 1.0468674z" fill-rule="nonzero"/><path fill="#31a853" d="m532.4068 203.35432l0 0c0 -11.784973 9.55365 -21.338577 21.338623 -21.338577l203.71649 0c5.659363 0 11.086914 2.248169 15.088684 6.2499237c4.00177 4.00177 6.249939 9.429321 6.249939 15.088654l0 0l0 0c0 11.784973 -9.55365 21.338593 -21.338623 21.338593l-203.71649 0c-11.784973 0 -21.338623 -9.553619 -21.338623 -21.338593z" fill-rule="evenodd"/><path stroke="#202124" stroke-width="2.0" stroke-linejoin="round" stroke-linecap="butt" d="m532.4068 203.35432l0 0c0 -11.784973 9.55365 -21.338577 21.338623 -21.338577l203.71649 0c5.659363 0 11.086914 2.248169 15.088684 6.2499237c4.00177 4.00177 6.249939 9.429321 6.249939 15.088654l0 0l0 0c0 11.784973 -9.55365 21.338593 -21.338623 21.338593l-203.71649 0c-11.784973 0 -21.338623 -9.553619 -21.338623 -21.338593z" fill-rule="evenodd"/><path fill="#202124" d="m632.4161 210.83434l0 -15.265625l5.34375 0q1.40625 0 2.515625 0.59375q1.109375 0.59375 1.75 1.640625q0.65625 1.046875 0.65625 2.4375q0 0.90625 -0.375 1.75q-0.359375 0.828125 -1.0625 1.484375q-0.6875 0.640625 -1.6875 1.0q-0.984375 0.359375 -2.21875 0.359375l-3.65625 0l0 -2.140625l4.015625 0q0.71875 0 1.3125 -0.3125q0.59375 -0.328125 0.953125 -0.890625q0.359375 -0.578125 0.359375 -1.28125q0 -0.609375 -0.296875 -1.171875q-0.296875 -0.578125 -0.875 -0.921875q-0.5625 -0.359375 -1.359375 -0.359375l-3.03125 0l0 13.078125l-2.34375 0zm3.53125 -6.96875l2.671875 -0.046875l4.78125 6.890625l0 0.125l-2.71875 0l-4.734375 -6.96875zm13.84375 7.3125q-1.59375 0 -2.859375 -0.75q-1.25 -0.75 -1.96875 -2.046875q-0.71875 -1.296875 -0.71875 -2.96875q0 -1.546875 0.6875 -2.875q0.6875 -1.328125 1.90625 -2.125q1.21875 -0.796875 2.828125 -0.796875q1.6875 0 2.859375 0.734375q1.1875 0.71875 1.796875 1.984375q0.625 1.25 0.625 2.828125q0 0.234375 -0.015625 0.421875q0 0.1875 -0.015625 0.296875l-9.375 0l0 -1.71875l7.125 0q-0.015625 -0.40625 -0.21875 -0.859375q-0.1875 -0.46875 -0.546875 -0.84375q-0.359375 -0.390625 -0.921875 -0.625q-0.546875 -0.25 -1.296875 -0.25q-0.9375 0 -1.671875 0.484375q-0.71875 0.46875 -1.125 1.328125q-0.40625 0.84375 -0.40625 1.984375q0 1.234375 0.46875 2.0625q0.484375 0.828125 1.25 1.265625q0.765625 0.421875 1.65625 0.421875q1.09375 0 1.828125 -0.5q0.734375 -0.5 1.15625 -1.25l1.90625 0.921875q-0.703125 1.265625 -1.921875 2.078125q-1.21875 0.796875 -3.03125 0.796875zm10.807861 0q-1.171875 0 -2.078125 -0.46875q-0.90625 -0.46875 -1.4375 -1.28125q-0.515625 -0.828125 -0.515625 -1.90625q0 -1.171875 0.609375 -1.96875q0.609375 -0.8125 1.625 -1.234375q1.03125 -0.4375 2.265625 -0.4375q0.6875 0 1.265625 0.09375q0.59375 0.09375 1.03125 0.234375q0.4375 0.125 0.703125 0.265625l0 -0.578125q0 -1.0625 -0.78125 -1.703125q-0.765625 -0.640625 -1.984375 -0.640625q-0.828125 0 -1.578125 0.375q-0.734375 0.375 -1.1875 1.015625l-1.578125 -1.21875q0.46875 -0.65625 1.140625 -1.125q0.671875 -0.46875 1.515625 -0.71875q0.84375 -0.265625 1.765625 -0.265625q2.359375 0 3.640625 1.171875q1.28125 1.15625 1.28125 3.25l0 6.796875l-2.234375 0l0 -1.34375l-0.140625 0q-0.265625 0.421875 -0.75 0.8125q-0.484375 0.375 -1.140625 0.625q-0.640625 0.25 -1.4375 0.25zm0.40625 -1.875q0.90625 0 1.59375 -0.421875q0.6875 -0.4375 1.078125 -1.125q0.390625 -0.703125 0.390625 -1.5q-0.484375 -0.28125 -1.15625 -0.453125q-0.65625 -0.1875 -1.40625 -0.1875q-1.40625 0 -2.015625 0.5625q-0.59375 0.546875 -0.59375 1.375q0 0.765625 0.578125 1.265625q0.578125 0.484375 1.53125 0.484375zm12.382324 1.875q-1.484375 0 -2.671875 -0.75q-1.1875 -0.75 -1.875 -2.046875q-0.6875 -1.296875 -0.6875 -2.984375q0 -1.6875 0.6875 -2.984375q0.6875 -1.296875 1.875 -2.046875q1.1875 -0.75 2.671875 -0.75q0.84375 0 1.53125 0.265625q0.6875 0.25 1.1875 0.671875q0.5 0.40625 0.765625 0.875l0.140625 0l-0.140625 -1.515625l0 -4.34375l2.28125 0l0 15.265625l-2.140625 0l0 -1.453125l-0.140625 0q-0.265625 0.453125 -0.765625 0.875q-0.5 0.40625 -1.1875 0.65625q-0.6875 0.265625 -1.53125 0.265625zm0.328125 -2.109375q0.859375 0 1.609375 -0.453125q0.765625 -0.453125 1.21875 -1.265625q0.46875 -0.828125 0.46875 -1.953125q0 -1.125 -0.46875 -1.953125q-0.453125 -0.828125 -1.21875 -1.265625q-0.75 -0.453125 -1.609375 -0.453125q-0.84375 0 -1.59375 0.453125q-0.75 0.4375 -1.21875 1.265625q-0.46875 0.828125 -0.46875 1.953125q0 1.109375 0.46875 1.9375q0.46875 0.828125 1.21875 1.28125q0.75 0.453125 1.59375 0.453125z" fill-rule="nonzero"/><path fill="#31a853" d="m714.4095 118.54488l0 0c0 -14.620331 11.852112 -26.472443 26.472412 -26.472443l0 0c7.020935 0 13.754272 2.7890549 18.718872 7.753601c4.9645386 4.964546 7.75354 11.697914 7.75354 18.718842l0 0c0 14.620323 -11.852112 26.472435 -26.472412 26.472435l0 0c-14.6203 0 -26.472412 -11.852112 -26.472412 -26.472435z" fill-rule="evenodd"/><path fill="#eeeeee" d="m504.26047 284.77774l0 0c0 -7.890442 6.3964844 -14.286926 14.286957 -14.286926l270.8277 0c3.7891235 0 7.4230347 1.5052185 10.102356 4.18454c2.6793213 2.6793213 4.1845703 6.313263 4.1845703 10.102386l0 160.18204c0 7.8904724 -6.3964844 14.286926 -14.286926 14.286926l-270.8277 0c-7.8904724 0 -14.286957 -6.396454 -14.286957 -14.286926z" fill-rule="evenodd"/><path fill="#ffffff" d="m532.4068 302.28836l0 0c0 -6.2851257 5.095154 -11.3802185 11.380249 -11.3802185l223.63324 0c3.0182495 0 5.912842 1.1989746 8.047058 3.333191c2.1342163 2.1342163 3.333191 5.0288086 3.333191 8.047028l0 60.893097c0 6.2851257 -5.095093 11.3802185 -11.380249 11.3802185l-223.63324 0c-6.285095 0 -11.380249 -5.095093 -11.380249 -11.3802185z" fill-rule="evenodd"/><path stroke="#202124" stroke-width="2.0" stroke-miterlimit="400.0" stroke-linecap="butt" d="m532.4068 302.28836l0 0c0 -6.2851257 5.095154 -11.3802185 11.380249 -11.3802185l223.63324 0c3.0182495 0 5.912842 1.1989746 8.047058 3.333191c2.1342163 2.1342163 3.333191 5.0288086 3.333191 8.047028l0 60.893097c0 6.2851257 -5.095093 11.3802185 -11.380249 11.3802185l-223.63324 0c-6.285095 0 -11.380249 -5.095093 -11.380249 -11.3802185z" fill-rule="evenodd"/><path fill="#202124" d="m554.16187 341.9269l7.5625 -20.046875l3.5 0l7.578125 20.046875l-3.375 0l-5.109375 -14.140625l-0.75 -2.296875l-0.171875 0l-0.75 2.296875l-5.09375 14.140625l-3.390625 0zm9.0625 -5.15625l0 -2.859375l4.65625 0l1.0 2.859375l-5.65625 0zm-5.453125 0l1.015625 -2.859375l4.4375 0l0 2.859375l-5.453125 0zm22.911804 5.609375q-1.9375 0 -3.515625 -0.984375q-1.5625 -0.984375 -2.453125 -2.6875q-0.890625 -1.703125 -0.890625 -3.921875q0 -2.21875 0.890625 -3.921875q0.890625 -1.703125 2.453125 -2.6875q1.578125 -0.984375 3.515625 -0.984375q1.109375 0 2.0 0.34375q0.90625 0.328125 1.5625 0.875q0.65625 0.546875 1.015625 1.171875l0.171875 0l-0.171875 -2.0l0 -5.703125l3.0 0l0 20.046875l-2.828125 0l0 -1.90625l-0.171875 0q-0.359375 0.59375 -1.015625 1.140625q-0.65625 0.546875 -1.5625 0.875q-0.890625 0.34375 -2.0 0.34375zm0.4375 -2.78125q1.125 0 2.109375 -0.578125q1.0 -0.59375 1.59375 -1.671875q0.609375 -1.078125 0.609375 -2.5625q0 -1.484375 -0.609375 -2.5625q-0.59375 -1.078125 -1.59375 -1.65625q-0.984375 -0.59375 -2.109375 -0.59375q-1.109375 0 -2.09375 0.59375q-0.984375 0.578125 -1.609375 1.65625q-0.609375 1.078125 -0.609375 2.5625q0 1.453125 0.609375 2.546875q0.625 1.09375 1.609375 1.6875q0.984375 0.578125 2.09375 0.578125zm10.701233 2.328125l0 -14.28125l2.859375 0l0 1.96875l0.15625 0q0.421875 -0.703125 1.09375 -1.234375q0.671875 -0.53125 1.53125 -0.859375q0.859375 -0.328125 1.78125 -0.328125q1.59375 0 2.703125 0.765625q1.125 0.75 1.609375 1.90625q0.703125 -1.125 1.90625 -1.890625q1.203125 -0.78125 2.9375 -0.78125q2.515625 0 3.75 1.53125q1.234375 1.53125 1.234375 4.046875l0 9.15625l-3.0 0l0 -8.65625q0 -1.734375 -0.75 -2.515625q-0.734375 -0.78125 -2.046875 -0.78125q-1.046875 0 -1.828125 0.578125q-0.78125 0.5625 -1.21875 1.546875q-0.421875 0.984375 -0.421875 2.1875l0 7.640625l-3.0 0l0 -8.65625q0 -1.703125 -0.765625 -2.5q-0.75 -0.796875 -2.125 -0.796875q-0.96875 0 -1.75 0.59375q-0.765625 0.578125 -1.203125 1.5625q-0.4375 0.984375 -0.4375 2.1875l0 7.609375l-3.015625 0zm25.194824 0l0 -14.28125l3.03125 0l0 14.28125l-3.03125 0zm1.515625 -16.375q-0.84375 0 -1.453125 -0.59375q-0.59375 -0.609375 -0.59375 -1.453125q0 -0.875 0.59375 -1.4375q0.609375 -0.578125 1.453125 -0.578125q0.875 0 1.453125 0.578125q0.59375 0.5625 0.59375 1.4375q0 0.84375 -0.59375 1.453125q-0.578125 0.59375 -1.453125 0.59375zm5.265686 16.375l0 -14.28125l2.859375 0l0 1.96875l0.15625 0q0.625 -1.046875 1.84375 -1.734375q1.21875 -0.6875 2.671875 -0.6875q2.625 0 3.9375 1.5625q1.328125 1.546875 1.328125 4.15625l0 9.015625l-3.0 0l0 -8.625q0 -1.734375 -0.875 -2.53125q-0.859375 -0.796875 -2.265625 -0.796875q-1.078125 0 -1.890625 0.609375q-0.8125 0.59375 -1.28125 1.578125q-0.46875 0.96875 -0.46875 2.09375l0 7.671875l-3.015625 0zm21.303162 0.453125q-1.703125 0 -2.96875 -0.515625q-1.25 -0.53125 -2.0625 -1.40625q-0.8125 -0.890625 -1.203125 -1.921875l2.703125 -1.171875q0.515625 1.140625 1.453125 1.75q0.9375 0.59375 2.171875 0.59375q1.109375 0 1.921875 -0.40625q0.8125 -0.40625 0.8125 -1.328125q0 -0.578125 -0.375 -0.953125q-0.375 -0.390625 -1.015625 -0.640625q-0.625 -0.25 -1.4375 -0.4375l-1.703125 -0.40625q-1.015625 -0.25 -1.921875 -0.796875q-0.90625 -0.546875 -1.46875 -1.375q-0.5625 -0.84375 -0.5625 -2.0q0 -1.28125 0.734375 -2.21875q0.75 -0.9375 2.0 -1.4375q1.265625 -0.515625 2.734375 -0.515625q1.34375 0 2.4375 0.359375q1.109375 0.34375 1.9375 1.03125q0.828125 0.6875 1.296875 1.703125l-2.59375 1.171875q-0.484375 -0.953125 -1.296875 -1.328125q-0.8125 -0.390625 -1.765625 -0.390625q-1.0625 0 -1.78125 0.4375q-0.703125 0.4375 -0.703125 1.140625q0 0.71875 0.625 1.140625q0.640625 0.421875 1.5625 0.671875l2.0625 0.515625q2.140625 0.53125 3.203125 1.609375q1.0625 1.078125 1.0625 2.609375q0 1.375 -0.796875 2.40625q-0.78125 1.015625 -2.109375 1.5625q-1.328125 0.546875 -2.953125 0.546875z" fill-rule="nonzero"/><path fill="#ffbb00" d="m532.4068 416.93176l0 0c0 -11.784973 9.55365 -21.338593 21.338623 -21.338593l203.71649 0c5.659363 0 11.086914 2.248169 15.088684 6.249939c4.00177 4.0017395 6.249939 9.429291 6.249939 15.088654l0 0l0 0c0 11.784973 -9.55365 21.338593 -21.338623 21.338593l-203.71649 0c-11.784973 0 -21.338623 -9.553619 -21.338623 -21.338593z" fill-rule="evenodd"/><path stroke="#202124" stroke-width="2.0" stroke-linejoin="round" stroke-linecap="butt" d="m532.4068 416.93176l0 0c0 -11.784973 9.55365 -21.338593 21.338623 -21.338593l203.71649 0c5.659363 0 11.086914 2.248169 15.088684 6.249939c4.00177 4.0017395 6.249939 9.429291 6.249939 15.088654l0 0l0 0c0 11.784973 -9.55365 21.338593 -21.338623 21.338593l-203.71649 0c-11.784973 0 -21.338623 -9.553619 -21.338623 -21.338593z" fill-rule="evenodd"/><path fill="#202124" d="m633.11945 424.41177l-4.09375 -15.265625l2.609375 0l2.421875 9.90625l0.265625 1.328125l0.125 0l0.3125 -1.328125l3.078125 -9.90625l2.34375 0l2.9375 9.90625l0.328125 1.3125l0.125 0l0.265625 -1.3125l2.421875 -9.90625l2.578125 0l-4.03125 15.265625l-2.46875 0l-2.921875 -10.125l-0.34375 -1.4375l-0.125 0l-0.359375 1.4375l-3.046875 10.125l-2.421875 0zm16.810974 0l0 -10.875l2.171875 0l0 1.59375l0.125 0q0.265625 -0.546875 0.734375 -0.96875q0.484375 -0.4375 1.109375 -0.6875q0.640625 -0.265625 1.3125 -0.265625q0.453125 0 0.765625 0.0625q0.3125 0.046875 0.5625 0.15625l0 2.390625q-0.40625 -0.171875 -0.828125 -0.28125q-0.40625 -0.109375 -0.859375 -0.109375q-0.8125 0 -1.4375 0.4375q-0.625 0.4375 -1.0 1.171875q-0.359375 0.71875 -0.359375 1.609375l0 5.765625l-2.296875 0zm8.724487 0l0 -10.875l2.296875 0l0 10.875l-2.296875 0zm1.15625 -12.484375q-0.640625 0 -1.109375 -0.453125q-0.453125 -0.453125 -0.453125 -1.09375q0 -0.65625 0.453125 -1.09375q0.46875 -0.4375 1.109375 -0.4375q0.65625 0 1.09375 0.4375q0.453125 0.4375 0.453125 1.09375q0 0.640625 -0.453125 1.09375q-0.4375 0.453125 -1.09375 0.453125zm3.1472778 1.609375l6.875 0l0 2.0l-6.875 0l0 -2.0zm1.90625 7.71875l0 -10.796875l2.296875 0l0 10.3125q0 0.796875 0.328125 1.234375q0.328125 0.421875 1.125 0.421875q0.390625 0 0.6875 -0.109375q0.296875 -0.125 0.59375 -0.296875l0 2.234375q-0.359375 0.15625 -0.765625 0.234375q-0.40625 0.09375 -0.96875 0.09375q-1.515625 0 -2.40625 -0.875q-0.890625 -0.890625 -0.890625 -2.453125zm11.725159 3.5q-1.59375 0 -2.859375 -0.75q-1.25 -0.75 -1.96875 -2.046875q-0.71875 -1.296875 -0.71875 -2.96875q0 -1.546875 0.6875 -2.875q0.6875 -1.328125 1.90625 -2.125q1.21875 -0.796875 2.828125 -0.796875q1.6875 0 2.859375 0.734375q1.1875 0.71875 1.796875 1.984375q0.625 1.25 0.625 2.828125q0 0.234375 -0.015625 0.421875q0 0.1875 -0.015625 0.296875l-9.375 0l0 -1.71875l7.125 0q-0.015625 -0.40625 -0.21875 -0.859375q-0.1875 -0.46875 -0.546875 -0.84375q-0.359375 -0.390625 -0.921875 -0.625q-0.546875 -0.25 -1.296875 -0.25q-0.9375 0 -1.671875 0.484375q-0.71875 0.46875 -1.125 1.328125q-0.40625 0.84375 -0.40625 1.984375q0 1.234375 0.46875 2.0625q0.484375 0.828125 1.25 1.265625q0.765625 0.421875 1.65625 0.421875q1.09375 0 1.828125 -0.5q0.734375 -0.5 1.15625 -1.25l1.90625 0.921875q-0.703125 1.265625 -1.921875 2.078125q-1.21875 0.796875 -3.03125 0.796875z" fill-rule="nonzero"/><path fill="#ffbb00" d="m714.4095 333.52652l0 0c0 -14.620331 11.852112 -26.472443 26.472412 -26.472443l0 0c7.020935 0 13.754272 2.789032 18.718872 7.753601c4.9645386 4.9645386 7.75354 11.6979065 7.75354 18.718842l0 0c0 14.6203 -11.852112 26.472443 -26.472412 26.472443l0 0c-14.6203 0 -26.472412 -11.852142 -26.472412 -26.472443z" fill-rule="evenodd"/><path fill="#ffffff" d="m750.87976 321.9981l-5.9766846 0c-0.63409424 -1.6276855 -2.1755981 -2.8687744 -4.0491333 -2.8687744c-1.8735962 0 -3.4151 1.2410889 -4.0491943 2.8687744l-5.9766846 0c-1.5702515 0 -2.892395 1.3237305 -2.892395 2.8674316l0 20.16269c0 1.5716858 1.3221436 2.8954163 2.892395 2.8954163l20.1344 0c1.5427246 0 2.8648682 -1.3237305 2.8648682 -2.8954163l0 -20.16269c-0.08270264 -1.6263428 -1.4049072 -2.8674316 -2.9475708 -2.8674316zm-10.108582 0c0.770813 0 1.4876099 0.6345215 1.4876099 1.4890442c0 0.77182007 -0.63409424 1.4623718 -1.4876099 1.4623718c-0.8534546 0 -1.4875488 -0.60787964 -1.4875488 -1.4623718c0.08270264 -0.8545227 0.7167969 -1.4890442 1.4875488 -1.4890442zm0 5.7641907c2.3961792 0 4.352478 1.9582825 4.352478 4.3578186c0 2.4275208 -1.9562988 4.357788 -4.352478 4.357788c-2.3961792 0 -4.352417 -1.9582825 -4.352417 -4.357788c0.08270264 -2.4275208 1.9562378 -4.3578186 4.352417 -4.3578186zm8.620972 17.26593l-17.241882 0l0 -2.0142822c0 -2.8674316 5.7561035 -4.44046 8.620911 -4.44046c2.8648682 0 8.620972 1.5730286 8.620972 4.44046l0 2.0142822z" fill-rule="evenodd"/><path fill="#000000" fill-opacity="0.0" d="m368.50394 258.07874c33.939056 0 50.909576 26.700806 67.87808 53.40158c16.968506 26.700775 33.934967 53.40158 67.869934 53.40158" fill-rule="evenodd"/><path stroke="#000000" stroke-width="2.0" stroke-linejoin="round" stroke-linecap="butt" d="m368.50394 258.07874c33.939056 0 50.909576 26.700806 67.87808 53.40158c8.484253 13.350403 16.968018 26.700775 27.57254 36.713593c5.3022766 5.006378 11.134766 9.178375 17.762634 12.098785c3.3139038 1.4601746 6.82666 2.607483 10.571411 3.3897705l0.022979736 0.004638672" fill-rule="evenodd"/><path fill="#000000" stroke="#000000" stroke-width="2.0" stroke-linecap="butt" d="m491.9827 366.97412l9.359985 -2.3833313l-8.702179 -4.1907654z" fill-rule="evenodd"/><path fill="#000000" fill-opacity="0.0" d="m368.50394 258.07874c33.939728 0 50.91095 -26.692902 67.879456 -53.38582c16.968506 -26.692917 33.934296 -53.385834 67.86856 -53.385834" fill-rule="evenodd"/><path stroke="#000000" stroke-width="2.0" stroke-linejoin="round" stroke-linecap="butt" d="m368.50394 258.07874c33.939728 0 50.91092 -26.692902 67.879425 -53.38582c8.484253 -13.346466 16.967865 -26.692917 27.572144 -36.70276c5.302124 -5.0049286 11.13446 -9.17569 17.762146 -12.09523c3.3138428 -1.4597626 6.8265076 -2.60672 10.5711975 -3.3887482l0.022705078 -0.0045776367" fill-rule="evenodd"/><path fill="#000000" stroke="#000000" stroke-width="2.0" stroke-linecap="butt" d="m492.6404 155.78865l8.7022705 -4.1905212l-9.359955 -2.3835907z" fill-rule="evenodd"/><path fill="#428eff" d="m301.4696 259.20154l3.7841492 0l0 -3.745514l-3.7841492 0l0 3.745514zm0 7.526947l3.7841492 0l0 -3.745514l-3.7841492 0l0 3.745514zm0 -15.125656l3.7841492 0l0 -3.7814178l-3.7841492 0l0 3.7814178zm7.532257 7.598709l26.341766 0l0 -3.745514l-26.341766 0l0 3.745514zm0 7.526947l26.341766 0l0 -3.745514l-26.341766 0l0 3.745514zm0 -18.907074l0 3.7814178l26.341766 0l0 -3.7814178l-26.341766 0z" fill-rule="evenodd"/><path fill="#ffffff" d="m747.359 118.54609c2.0355835 0 3.5752563 -1.6234512 3.5752563 -3.5779572c0 -1.9264526 -1.6223145 -3.5770264 -3.5752563 -3.5770264c-2.0076294 0 -3.5473022 1.6505737 -3.5473022 3.5770264c0 1.9545059 1.6223145 3.5779572 3.5473022 3.5779572zm-10.780579 -1.4036865c2.4208984 0 4.2631836 -1.9264526 4.2631836 -4.3476105c0 -2.3949738 -1.9249878 -4.3485413 -4.2631836 -4.3485413c-2.3101807 0 -4.3444824 1.9535675 -4.3444824 4.3485413c0 2.4211578 2.0343018 4.3476105 4.3444824 4.3476105zm10.780579 4.265312c-2.6115112 0 -7.8917847 1.3213959 -7.8917847 3.9632492l0 3.274971l15.812866 0l0 -3.274971c0 -2.559555 -5.2802734 -3.9632492 -7.9210815 -3.9632492zm-10.780579 -1.3756332c-3.3273315 0 -10.092651 1.7066803 -10.092651 5.0358887l0 3.5779648l10.092651 0l0 -3.274971c0 -1.2381592 0.4678955 -3.3301392 3.411316 -4.953598c-1.2384033 -0.247818 -2.3928223 -0.38528442 -3.411316 -0.38528442z" fill-rule="evenodd"/></g></svg>