<?xml version="1.0" encoding="utf-8"?>
<!-- Generator: Adobe Illustrator 26.3.0, SVG Export Plug-In . SVG Version: 6.00 Build 0)  -->
<svg version="1.1" id="Layer_1" xmlns="http://www.w3.org/2000/svg" xmlns:xlink="http://www.w3.org/1999/xlink" x="0px" y="0px"
	 viewBox="0 0 20.2 24" style="enable-background:new 0 0 20.2 24;" xml:space="preserve">
<style type="text/css">
	.st0{fill:#FFFFFF;}
</style>
<path class="st0" d="M19.8,18.7c-0.4,0.8-0.8,1.6-1.3,2.3c-0.7,1-1.2,1.6-1.7,2c-0.7,0.6-1.4,0.9-2.1,0.9c-0.5,0-1.2-0.2-2-0.5
	C12,23.2,11.3,23,10.6,23c-0.7,0-1.4,0.2-2.2,0.5C7.6,23.8,7,24,6.5,24c-0.7,0-1.5-0.3-2.2-1c-0.5-0.4-1-1.1-1.7-2.1
	c-0.7-1-1.4-2.3-1.8-3.7C0.3,15.8,0,14.4,0,12.9c0-1.6,0.3-3,1-4.2c0.5-0.9,1.3-1.7,2.2-2.2s1.9-0.8,3-0.8c0.6,0,1.3,0.2,2.3,0.5
	c0.9,0.4,1.5,0.5,1.8,0.5c0.2,0,0.9-0.2,2-0.6c1.1-0.4,2-0.5,2.7-0.5c2,0.2,3.5,1,4.5,2.4c-1.8,1.1-2.7,2.6-2.7,4.6
	c0,1.5,0.6,2.8,1.7,3.8c0.5,0.5,1,0.8,1.7,1.1C20.1,18,19.9,18.3,19.8,18.7z M15.2,0.5c0,1.2-0.4,2.3-1.3,3.4
	c-1.1,1.2-2.3,1.9-3.7,1.8c0-0.1,0-0.3,0-0.5c0-1.2,0.5-2.4,1.4-3.4c0.4-0.5,1-0.9,1.7-1.3C13.9,0.2,14.5,0,15.1,0
	C15.2,0.2,15.2,0.3,15.2,0.5L15.2,0.5z"/>
</svg>
