<?xml version="1.0" encoding="utf-8"?>
<!-- Generator: Adobe Illustrator 26.3.0, SVG Export Plug-In . SVG Version: 6.00 Build 0)  -->
<svg version="1.1" id="Layer_1" xmlns="http://www.w3.org/2000/svg" xmlns:xlink="http://www.w3.org/1999/xlink" x="0px" y="0px"
	 viewBox="0 0 24 18.2" style="enable-background:new 0 0 24 18.2;" xml:space="preserve">
<style type="text/css">
	.st0{fill:#FFFFFF;}
</style>
<g id="图层_2">
	<g id="Discord_Logos">
		<g id="Discord_Logo_-_Large_-_White">
			<path class="st0" d="M20.3,1.5c-1.6-0.7-3.2-1.2-5-1.5c-0.2,0.4-0.4,0.8-0.6,1.3C12.9,1,11.1,1,9.2,1.3C9.1,0.8,8.8,0.4,8.6,0
				c-1.7,0.3-3.4,0.8-5,1.5c-3.1,4.6-4,9.2-3.6,13.6l0,0c1.8,1.4,3.9,2.4,6.1,3c0.5-0.7,0.9-1.4,1.3-2.1c-0.7-0.3-1.4-0.6-2-1
				c0.2-0.1,0.3-0.3,0.5-0.4c3.8,1.8,8.3,1.8,12.1,0c0.2,0.1,0.3,0.3,0.5,0.4c-0.7,0.4-1.3,0.7-2.1,1c0.4,0.7,0.8,1.4,1.3,2.1
				c2.2-0.7,4.2-1.7,6.1-3l0,0C24.4,10,23,5.5,20.3,1.5z M8,12.4c-1.2,0-2.2-1.1-2.2-2.4S6.8,7.6,8,7.6s2.2,1.1,2.2,2.4
				S9.2,12.4,8,12.4z M16,12.4c-1.2,0-2.2-1.1-2.2-2.4s0.9-2.4,2.2-2.4s2.2,1.1,2.2,2.4C18.1,11.3,17.2,12.4,16,12.4z"/>
		</g>
	</g>
</g>
</svg>
