<?xml version="1.0" encoding="utf-8"?>
<!-- Generator: Adobe Illustrator 26.3.0, SVG Export Plug-In . SVG Version: 6.00 Build 0)  -->
<svg version="1.1" id="Layer_1" xmlns="http://www.w3.org/2000/svg" xmlns:xlink="http://www.w3.org/1999/xlink" x="0px" y="0px"
	 viewBox="0 0 21.6 22" style="enable-background:new 0 0 21.6 22;" xml:space="preserve">
<style type="text/css">
	.st0{fill:#4285F4;}
	.st1{fill:#34A853;}
	.st2{fill:#FBBC05;}
	.st3{fill:#EA4335;}
	.st4{fill:none;}
</style>
<path class="st0" d="M21.6,11.2c0-0.8-0.1-1.5-0.2-2.2H11v4.3h5.9c-0.3,1.4-1,2.5-2.2,3.3v2.8h3.6C20.4,17.4,21.6,14.6,21.6,11.2z"
	/>
<path class="st1" d="M11,22c3,0,5.5-1,7.3-2.7l-3.6-2.8c-1,0.7-2.2,1.1-3.7,1.1c-2.9,0-5.3-1.9-6.2-4.5H1.2v2.8C3,19.5,6.7,22,11,22
	z"/>
<path class="st2" d="M4.8,13.1c-0.2-0.7-0.3-1.4-0.3-2.1s0.1-1.4,0.3-2.1V6.1H1.2C0.4,7.6,0,9.2,0,11s0.4,3.4,1.2,4.9L4,13.7
	C4,13.7,4.8,13.1,4.8,13.1z"/>
<path class="st3" d="M11,4.4c1.6,0,3.1,0.6,4.2,1.6l3.1-3.2C16.5,1.1,14,0,11,0C6.7,0,3,2.5,1.2,6.1l3.7,2.8C5.7,6.3,8.1,4.4,11,4.4
	z"/>
<path class="st4" d="M0,0h22v22H0V0z"/>
</svg>
