<?xml version="1.0" standalone="no"?>
<!DOCTYPE svg PUBLIC "-//W3C//DTD SVG 20010904//EN"
 "http://www.w3.org/TR/2001/REC-SVG-20010904/DTD/svg10.dtd">
<svg version="1.0" xmlns="http://www.w3.org/2000/svg"
 width="1024.000000pt" height="1024.000000pt" viewBox="0 0 1024.000000 1024.000000"
 preserveAspectRatio="xMidYMid meet">
<metadata>
Created by potrace 1.14, written by Peter Selinger 2001-2017
</metadata>
<g transform="translate(0.000000,1024.000000) scale(0.100000,-0.100000)"
fill="#000000" stroke="none">
<path d="M4595 8160 c-3 -5 -16 -10 -29 -10 -65 0 -88 -98 -38 -172 15 -22 32
-48 37 -57 6 -8 20 -24 33 -34 12 -10 22 -24 22 -31 0 -7 9 -21 19 -30 11 -10
23 -31 26 -47 4 -16 10 -29 14 -29 8 0 20 -22 43 -77 7 -18 16 -33 20 -33 4 0
5 -7 2 -15 -4 -8 -1 -15 5 -15 6 0 11 -9 11 -20 0 -11 5 -20 10 -20 6 0 10 -6
9 -12 -3 -28 2 -49 10 -43 6 3 8 -4 6 -15 -2 -11 2 -25 8 -32 7 -7 12 -24 11
-38 -1 -14 2 -27 7 -30 5 -3 10 -34 11 -68 1 -34 6 -62 10 -62 5 0 8 -47 8
-105 0 -61 -4 -105 -10 -105 -5 0 -8 -21 -6 -46 2 -29 -1 -47 -9 -50 -6 -3
-11 -17 -10 -32 0 -15 -4 -33 -11 -40 -7 -7 -11 -21 -9 -32 2 -11 0 -20 -6
-20 -5 0 -9 -9 -9 -19 0 -25 -89 -201 -112 -222 -10 -9 -15 -19 -11 -22 3 -4
-4 -15 -15 -26 -12 -10 -22 -23 -22 -29 0 -6 -11 -22 -25 -36 -14 -14 -25 -30
-25 -36 0 -7 305 -10 980 -10 l980 0 0 -792 c0 -435 3 -788 7 -784 4 3 8 23
10 43 1 19 7 41 11 47 5 6 8 25 7 41 -2 17 1 35 6 41 5 6 10 35 10 63 1 28 6
54 10 57 5 3 9 32 9 64 0 32 4 62 10 65 5 3 10 46 10 95 0 49 4 91 9 94 13 8
15 813 2 821 -6 3 -11 39 -11 80 0 41 -4 77 -10 80 -5 3 -10 28 -10 56 0 27
-4 49 -9 49 -5 0 -9 17 -9 38 0 20 -4 51 -9 67 -6 17 -9 38 -8 47 2 9 -3 19
-11 22 -8 3 -11 12 -8 21 4 8 2 21 -4 28 -5 6 -12 28 -16 47 -11 60 -12 64
-29 104 -10 21 -17 45 -17 52 0 8 -4 14 -10 14 -5 0 -10 9 -10 19 0 11 -4 23
-10 26 -5 3 -10 15 -10 26 0 10 -4 19 -9 19 -5 0 -12 14 -16 30 -4 17 -10 30
-15 30 -7 0 -24 49 -20 59 1 2 -5 8 -14 13 -9 5 -14 14 -10 19 3 5 -6 19 -20
30 -15 11 -24 25 -21 30 4 5 2 9 -3 9 -6 0 -15 14 -21 30 -5 17 -17 33 -26 36
-8 3 -15 12 -15 20 0 8 -11 24 -25 36 -14 12 -25 27 -25 33 0 11 -252 265
-264 265 -3 0 -20 12 -37 28 -17 15 -35 27 -41 27 -5 0 -15 8 -22 18 -7 9 -16
17 -20 17 -3 0 -24 11 -46 25 -22 14 -46 25 -54 25 -9 0 -20 9 -26 20 -6 11
-15 18 -19 15 -5 -3 -12 2 -15 10 -3 8 -9 14 -13 13 -4 -1 -30 9 -58 22 -27
13 -58 23 -69 22 -10 0 -27 8 -39 19 -11 10 -29 19 -38 19 -10 0 -21 5 -24 10
-3 6 -15 10 -26 10 -10 0 -19 5 -19 11 0 6 -8 8 -19 4 -10 -3 -23 1 -30 8 -6
8 -22 12 -35 10 -13 -3 -27 0 -30 6 -4 6 -17 11 -30 11 -12 0 -26 3 -30 7 -4
4 -19 9 -34 11 -15 2 -29 7 -32 11 -3 4 -22 7 -43 6 -21 -1 -42 4 -48 12 -8 9
-16 10 -29 3 -12 -6 -21 -7 -25 0 -3 5 -12 7 -19 4 -8 -3 -17 -1 -21 5 -3 7
-43 11 -96 11 -53 0 -89 4 -89 10 0 6 -33 10 -79 10 -44 0 -83 -4 -86 -10z"/>
<path d="M8613 6342 l-1321 -2 -1 -423 c-1 -232 -1 -429 -2 -437 0 -8 1 -121
1 -250 1 -129 1 -333 1 -452 l-1 -218 -430 0 -430 0 0 890 0 890 -1350 0
-1350 0 0 -890 0 -890 -425 2 -426 3 -3 610 c-2 336 -5 724 -6 863 -1 140 0
256 3 258 3 3 3 14 0 25 -5 19 -27 19 -1349 19 l-1344 0 0 -1349 0 -1349 38 0
c20 0 422 -1 892 -1 l855 -1 -1 -885 -1 -885 1343 0 1344 0 -2 885 -3 885 432
0 433 0 2 -887 c2 -489 6 -887 11 -885 4 1 609 2 1346 2 l1338 0 0 883 0 882
891 3 892 2 0 1350 c0 1159 -2 1350 -14 1350 -8 0 -20 1 -28 3 -7 1 -608 1
-1335 -1z m-6203 -1122 l0 -660 -207 -1 c-115 0 -215 -3 -223 -7 -13 -6 -15
-39 -15 -224 l0 -218 -662 0 c-625 0 -663 1 -663 18 -1 31 -2 1737 -1 1745 1
4 399 7 886 7 l885 0 0 -660z m3553 -2 l2 -658 -225 -2 -225 -3 -3 -222 -2
-223 -433 0 -432 0 3 225 3 226 -226 -3 -225 -3 0 663 0 662 880 -2 880 -3 3
-657z m3567 632 c4 -14 3 -33 -2 -42 -5 -11 -5 -18 0 -18 5 0 6 -18 2 -40 -4
-22 -4 -43 1 -46 4 -2 4 -15 0 -27 -5 -12 -5 -34 0 -50 5 -16 4 -25 -2 -22 -5
4 -5 -3 0 -18 6 -14 6 -28 1 -33 -5 -5 -5 -25 -1 -47 5 -20 6 -37 2 -37 -4 0
-6 -17 -5 -37 2 -21 3 -63 3 -93 0 -57 1 -148 4 -287 1 -44 0 -80 -3 -78 -3 2
-5 -19 -5 -45 0 -26 2 -47 5 -45 3 2 3 -31 0 -73 -7 -98 -4 -258 6 -273 5 -8
3 -9 -6 -4 -9 5 -10 2 -6 -13 6 -19 7 -42 4 -158 -1 -28 3 -57 7 -64 5 -7 4
-11 -1 -8 -5 4 -9 -34 -8 -88 l0 -94 -660 2 -660 3 0 223 0 223 -224 -2 c-123
0 -224 1 -225 2 -1 2 -1 300 1 662 l2 657 882 -2 882 -3 6 -25z m-5112 -1737
c-120 -2 -316 -2 -435 0 -120 1 -22 2 217 2 239 0 337 -1 218 -2z m-688 -243
l0 -230 233 0 234 0 2 -660 1 -660 -890 -2 c-489 -2 -891 0 -893 4 -1 5 -1
303 1 663 l2 655 228 2 227 3 2 220 c1 121 2 223 2 228 1 4 192 7 426 7 l425
0 0 -230z m3560 0 l0 -230 230 0 230 0 0 -660 0 -660 -890 0 -890 0 0 660 0
660 228 2 227 3 3 228 2 227 430 0 430 0 0 -230z"/>
<path d="M4292 5223 l3 -558 226 -3 225 -2 10 -28 c9 -26 11 -24 53 58 37 72
87 162 126 228 115 193 298 393 546 598 41 34 87 74 103 89 16 14 46 38 68 53
l40 26 20 -24 c16 -19 18 -33 13 -64 -5 -35 -62 -214 -85 -271 -18 -43 -59
-215 -71 -300 -8 -49 -14 -151 -14 -225 l0 -135 152 0 151 0 4 555 3 555 -788
3 -787 2 2 -557z"/>
<path d="M2980 3770 l0 -230 -230 0 -230 0 0 -473 c1 -407 3 -477 16 -495 8
-12 12 -22 9 -22 -4 0 2 -12 13 -27 10 -16 24 -41 29 -58 l10 -30 569 0 569 0
12 90 c29 226 31 235 95 435 17 52 49 136 73 185 23 50 47 104 54 122 19 46
56 78 91 75 l30 -2 0 100 0 100 -230 0 -230 0 -2 228 -3 227 -322 3 -323 2 0
-230z"/>
<path d="M6528 3789 l-3 -212 -55 -19 c-45 -15 -86 -19 -217 -19 -112 0 -163
-4 -163 -11 0 -6 31 -45 68 -87 120 -134 211 -258 305 -416 82 -138 187 -438
187 -534 0 -65 -37 -61 506 -61 l494 0 0 555 0 555 -230 0 -230 0 -2 228 -3
227 -327 3 -328 2 -2 -211z"/>
<path d="M3187 6017 c-44 -21 -177 -143 -177 -163 0 -6 -7 -17 -15 -24 -13
-11 -15 -89 -15 -591 l0 -579 250 0 250 0 -6 28 c-3 15 -10 40 -16 55 -6 15
-8 30 -5 34 4 3 2 13 -3 23 -5 9 -11 28 -14 41 -3 13 -9 38 -15 56 -5 17 -7
34 -3 37 3 3 0 16 -6 29 -11 22 -19 63 -27 145 -3 23 -8 50 -13 60 -4 9 -7 42
-6 72 0 30 -3 64 -9 75 -6 11 -10 65 -10 120 0 55 -4 105 -9 112 -6 7 -10 98
-9 218 0 126 -3 205 -9 205 -6 0 -10 6 -10 13 0 19 -37 50 -61 52 -11 1 -39
-7 -62 -18z"/>
<path d="M3610 4906 c0 -30 -4 -57 -10 -61 -5 -3 -8 -45 -7 -93 2 -70 5 -87
17 -87 13 0 15 24 18 148 2 96 -1 147 -8 147 -5 0 -10 -24 -10 -54z"/>
<path d="M6530 4690 c0 -27 3 -30 30 -30 36 0 38 9 7 38 -31 29 -37 28 -37 -8z"/>
<path d="M7163 4696 c-36 -17 -37 -36 -3 -36 25 0 30 4 30 25 0 14 -1 24 -2
24 -2 -1 -13 -6 -25 -13z"/>
<path d="M3150 1675 c47 -47 89 -85 95 -85 6 0 32 -22 57 -50 26 -27 51 -50
57 -50 6 0 25 -13 42 -30 18 -16 35 -28 38 -25 4 2 14 -5 21 -16 8 -10 19 -19
26 -19 6 0 19 -9 29 -20 10 -12 24 -19 30 -16 6 2 17 -5 24 -15 6 -11 16 -17
21 -14 6 4 13 -1 16 -9 3 -9 12 -16 19 -16 6 0 20 -9 30 -20 9 -10 20 -19 24
-18 3 1 20 -5 36 -12 17 -7 34 -12 38 -12 4 1 10 -5 13 -13 3 -8 11 -12 17 -8
5 3 16 -3 24 -13 8 -10 17 -19 21 -18 15 2 42 -9 42 -17 0 -5 9 -9 20 -9 11 0
20 -4 20 -9 0 -5 16 -12 36 -15 19 -4 51 -16 70 -26 19 -11 34 -17 34 -14 0 4
11 -1 25 -10 14 -9 25 -13 25 -9 0 5 4 2 9 -6 5 -7 20 -13 35 -13 14 0 26 -4
26 -9 0 -5 16 -9 35 -9 19 0 35 -4 35 -10 0 -5 11 -10 24 -10 14 0 27 -4 30
-8 3 -5 19 -7 36 -4 18 2 30 0 30 -7 0 -6 16 -11 35 -11 19 0 35 -4 35 -9 0
-5 15 -8 33 -7 17 1 41 -2 52 -8 11 -5 34 -10 52 -12 17 -1 35 -4 40 -7 5 -3
33 -7 62 -8 28 -2 54 -6 57 -11 3 -4 43 -8 89 -8 46 0 87 -5 90 -10 4 -6 95
-10 241 -10 129 0 234 -4 234 -8 0 -5 66 -7 148 -5 201 5 322 13 322 22 0 4
16 8 37 9 20 2 41 6 47 10 6 3 25 7 43 7 17 1 38 6 45 13 8 6 23 9 33 8 11 -2
28 3 39 10 10 7 25 10 32 7 8 -3 33 4 57 15 23 10 59 22 80 26 21 4 54 16 73
27 19 10 41 19 49 19 8 0 15 4 15 9 0 6 9 8 20 6 13 -2 20 2 20 11 0 8 3 13 8
12 12 -2 65 14 97 30 17 9 32 17 35 17 21 6 48 22 61 37 9 10 24 18 33 18 9 0
16 5 16 11 0 5 5 7 11 4 6 -4 17 1 24 11 8 11 15 15 15 10 0 -5 10 0 23 12 12
11 27 22 32 23 19 5 65 34 65 42 0 4 5 7 10 7 6 0 23 11 38 25 15 14 32 25 39
25 6 0 22 12 35 28 13 15 30 28 38 30 7 2 30 21 51 43 20 21 42 39 48 39 9 0
241 227 241 236 0 2 -191 4 -425 4 -308 0 -425 -3 -425 -11 0 -14 -85 -156
-106 -176 -8 -8 -14 -19 -14 -24 0 -6 -16 -27 -35 -47 -19 -20 -35 -40 -35
-44 0 -4 -32 -34 -70 -68 -52 -44 -78 -60 -100 -60 -17 0 -30 5 -30 12 0 8
-64 9 -257 3 -279 -10 -421 -9 -495 1 -33 4 -48 2 -48 -5 0 -9 -62 -10 -232
-5 -372 10 -621 12 -648 4 -14 -4 -37 -3 -51 2 -14 5 -36 5 -48 0 -18 -6 -37
-1 -80 21 -109 56 -210 158 -322 323 l-50 74 -412 0 -412 0 85 -85z"/>
</g>
</svg>
